0
SECTION
2
HEADER
9
$ACADVER
1
AC1008
9
$UCSORG
10
0.0
20
0.0
30
0.0
9
$UCSXDIR
10
1.0
20
0.0
30
0.0
9
$TILEMODE
70
1
9
$UCSYDIR
10
0.0
20
1.0
30
0.0
9
$EXTMIN
10
-512.000000
20
-512.000000
30
876.831665
9
$EXTMAX
10
0.000000
20
0.000000
30
1057.000000
0
ENDSEC
0
SECTION
2
TABLES
0
TABLE
2
LTYPE
70
1
0
LTYPE
2
CONTINUOUS
70
64
3
Solid line
72
65
73
0
40
0.0
0
ENDTAB
0
TABLE
2
LAYER
70
1
0
LAYER
2
0
70
0
62
7
6
CONTINUOUS
0
ENDTAB
0
TABLE
2
STYLE
70
1
0
STYLE
2
STANDARD
70
0
40
0.0
41
1.0
50
0.0
71
0
42
0.2
3
txt
4

0
ENDTAB
0
TABLE
2
UCS
70
0
0
ENDTAB
0
ENDSEC
0
SECTION
2
ENTITIES
0
POLYLINE
8
OBJECT000
66
1
70
64
71
8
72
12
62
50
0
VERTEX
8
OBJECT000
10
0.000000
20
-256.000000
30
896.000000
70
192
0
VERTEX
8
OBJECT000
10
-49.000000
20
-97.774124
30
896.000000
70
192
0
VERTEX
8
OBJECT000
10
-64.500000
20
-109.338806
30
896.000000
70
192
0
VERTEX
8
OBJECT000
10
-19.000000
20
-256.000000
30
896.000000
70
192
0
VERTEX
8
OBJECT000
10
-19.000000
20
-256.000000
30
1056.000000
70
192
0
VERTEX
8
OBJECT000
10
-64.500000
20
-109.338806
30
1056.000000
70
192
0
VERTEX
8
OBJECT000
10
-49.000000
20
-97.774124
30
1056.000000
70
192
0
VERTEX
8
OBJECT000
10
0.000000
20
-256.000000
30
1056.000000
70
192
0
VERTEX
8
OBJECT000
10
0
20
0
30
0
70
128
71
2
72
3
73
-4
0
VERTEX
8
OBJECT000
10
0
20
0
30
0
70
128
71
-2
72
4
73
1
0
VERTEX
8
OBJECT000
10
0
20
0
30
0
70
128
71
6
72
7
73
-8
0
VERTEX
8
OBJECT000
10
0
20
0
30
0
70
128
71
-6
72
8
73
5
0
VERTEX
8
OBJECT000
10
0
20
0
30
0
70
128
71
1
72
4
73
-5
0
VERTEX
8
OBJECT000
10
0
20
0
30
0
70
128
71
-1
72
5
73
8
0
VERTEX
8
OBJECT000
10
0
20
0
30
0
70
128
71
7
72
6
73
-3
0
VERTEX
8
OBJECT000
10
0
20
0
30
0
70
128
71
-7
72
3
73
2
0
VERTEX
8
OBJECT000
10
0
20
0
30
0
70
128
71
1
72
8
73
-7
0
VERTEX
8
OBJECT000
10
0
20
0
30
0
70
128
71
-1
72
7
73
2
0
VERTEX
8
OBJECT000
10
0
20
0
30
0
70
128
71
3
72
6
73
-5
0
VERTEX
8
OBJECT000
10
0
20
0
30
0
70
128
71
-3
72
5
73
4
0
SEQEND
8
OBJECT000
0
POLYLINE
8
OBJECT001
66
1
70
64
71
8
72
12
62
50
0
VERTEX
8
OBJECT001
10
-49.000000
20
-97.774124
30
896.000000
70
192
0
VERTEX
8
OBJECT001
10
-177.000000
20
0.000000
30
896.000000
70
192
0
VERTEX
8
OBJECT001
10
-183.000000
20
-18.924011
30
896.000000
70
192
0
VERTEX
8
OBJECT001
10
-64.500000
20
-109.338806
30
896.000000
70
192
0
VERTEX
8
OBJECT001
10
-64.500000
20
-109.338806
30
1056.000000
70
192
0
VERTEX
8
OBJECT001
10
-183.000000
20
-18.924011
30
1056.000000
70
192
0
VERTEX
8
OBJECT001
10
-177.000000
20
0.000000
30
1056.000000
70
192
0
VERTEX
8
OBJECT001
10
-49.000000
20
-97.774124
30
1056.000000
70
192
0
VERTEX
8
OBJECT001
10
0
20
0
30
0
70
128
71
2
72
3
73
-4
0
VERTEX
8
OBJECT001
10
0
20
0
30
0
70
128
71
-2
72
4
73
1
0
VERTEX
8
OBJECT001
10
0
20
0
30
0
70
128
71
6
72
7
73
-8
0
VERTEX
8
OBJECT001
10
0
20
0
30
0
70
128
71
-6
72
8
73
5
0
VERTEX
8
OBJECT001
10
0
20
0
30
0
70
128
71
1
72
4
73
-5
0
VERTEX
8
OBJECT001
10
0
20
0
30
0
70
128
71
-1
72
5
73
8
0
VERTEX
8
OBJECT001
10
0
20
0
30
0
70
128
71
7
72
6
73
-3
0
VERTEX
8
OBJECT001
10
0
20
0
30
0
70
128
71
-7
72
3
73
2
0
VERTEX
8
OBJECT001
10
0
20
0
30
0
70
128
71
1
72
8
73
-7
0
VERTEX
8
OBJECT001
10
0
20
0
30
0
70
128
71
-1
72
7
73
2
0
VERTEX
8
OBJECT001
10
0
20
0
30
0
70
128
71
3
72
6
73
-5
0
VERTEX
8
OBJECT001
10
0
20
0
30
0
70
128
71
-3
72
5
73
4
0
SEQEND
8
OBJECT001
0
POLYLINE
8
OBJECT002
66
1
70
64
71
8
72
12
62
50
0
VERTEX
8
OBJECT002
10
-177.000000
20
0.000000
30
896.000000
70
192
0
VERTEX
8
OBJECT002
10
-335.000000
20
0.000000
30
896.000000
70
192
0
VERTEX
8
OBJECT002
10
-329.000000
20
-18.924011
30
896.000000
70
192
0
VERTEX
8
OBJECT002
10
-183.000000
20
-18.924011
30
896.000000
70
192
0
VERTEX
8
OBJECT002
10
-183.000000
20
-18.924011
30
1056.000000
70
192
0
VERTEX
8
OBJECT002
10
-329.000000
20
-18.924011
30
1056.000000
70
192
0
VERTEX
8
OBJECT002
10
-335.000000
20
0.000000
30
1056.000000
70
192
0
VERTEX
8
OBJECT002
10
-177.000000
20
0.000000
30
1056.000000
70
192
0
VERTEX
8
OBJECT002
10
0
20
0
30
0
70
128
71
2
72
3
73
-4
0
VERTEX
8
OBJECT002
10
0
20
0
30
0
70
128
71
-2
72
4
73
1
0
VERTEX
8
OBJECT002
10
0
20
0
30
0
70
128
71
6
72
7
73
-8
0
VERTEX
8
OBJECT002
10
0
20
0
30
0
70
128
71
-6
72
8
73
5
0
VERTEX
8
OBJECT002
10
0
20
0
30
0
70
128
71
1
72
4
73
-5
0
VERTEX
8
OBJECT002
10
0
20
0
30
0
70
128
71
-1
72
5
73
8
0
VERTEX
8
OBJECT002
10
0
20
0
30
0
70
128
71
7
72
6
73
-3
0
VERTEX
8
OBJECT002
10
0
20
0
30
0
70
128
71
-7
72
3
73
2
0
VERTEX
8
OBJECT002
10
0
20
0
30
0
70
128
71
1
72
8
73
-7
0
VERTEX
8
OBJECT002
10
0
20
0
30
0
70
128
71
-1
72
7
73
2
0
VERTEX
8
OBJECT002
10
0
20
0
30
0
70
128
71
3
72
6
73
-5
0
VERTEX
8
OBJECT002
10
0
20
0
30
0
70
128
71
-3
72
5
73
4
0
SEQEND
8
OBJECT002
0
POLYLINE
8
OBJECT003
66
1
70
64
71
8
72
12
62
50
0
VERTEX
8
OBJECT003
10
-335.000000
20
0.000000
30
896.000000
70
192
0
VERTEX
8
OBJECT003
10
-463.000000
20
-97.774124
30
896.000000
70
192
0
VERTEX
8
OBJECT003
10
-447.500000
20
-109.338806
30
896.000000
70
192
0
VERTEX
8
OBJECT003
10
-329.000000
20
-18.924011
30
896.000000
70
192
0
VERTEX
8
OBJECT003
10
-329.000000
20
-18.924011
30
1056.000000
70
192
0
VERTEX
8
OBJECT003
10
-447.500000
20
-109.338806
30
1056.000000
70
192
0
VERTEX
8
OBJECT003
10
-463.000000
20
-97.774124
30
1056.000000
70
192
0
VERTEX
8
OBJECT003
10
-335.000000
20
0.000000
30
1056.000000
70
192
0
VERTEX
8
OBJECT003
10
0
20
0
30
0
70
128
71
2
72
3
73
-4
0
VERTEX
8
OBJECT003
10
0
20
0
30
0
70
128
71
-2
72
4
73
1
0
VERTEX
8
OBJECT003
10
0
20
0
30
0
70
128
71
6
72
7
73
-8
0
VERTEX
8
OBJECT003
10
0
20
0
30
0
70
128
71
-6
72
8
73
5
0
VERTEX
8
OBJECT003
10
0
20
0
30
0
70
128
71
1
72
4
73
-5
0
VERTEX
8
OBJECT003
10
0
20
0
30
0
70
128
71
-1
72
5
73
8
0
VERTEX
8
OBJECT003
10
0
20
0
30
0
70
128
71
7
72
6
73
-3
0
VERTEX
8
OBJECT003
10
0
20
0
30
0
70
128
71
-7
72
3
73
2
0
VERTEX
8
OBJECT003
10
0
20
0
30
0
70
128
71
1
72
8
73
-7
0
VERTEX
8
OBJECT003
10
0
20
0
30
0
70
128
71
-1
72
7
73
2
0
VERTEX
8
OBJECT003
10
0
20
0
30
0
70
128
71
3
72
6
73
-5
0
VERTEX
8
OBJECT003
10
0
20
0
30
0
70
128
71
-3
72
5
73
4
0
SEQEND
8
OBJECT003
0
POLYLINE
8
OBJECT004
66
1
70
64
71
8
72
12
62
50
0
VERTEX
8
OBJECT004
10
-463.000000
20
-97.774124
30
896.000000
70
192
0
VERTEX
8
OBJECT004
10
-512.000000
20
-256.000000
30
896.000000
70
192
0
VERTEX
8
OBJECT004
10
-493.000000
20
-256.000000
30
896.000000
70
192
0
VERTEX
8
OBJECT004
10
-447.500000
20
-109.338806
30
896.000000
70
192
0
VERTEX
8
OBJECT004
10
-447.500000
20
-109.338806
30
1056.000000
70
192
0
VERTEX
8
OBJECT004
10
-493.000000
20
-256.000000
30
1056.000000
70
192
0
VERTEX
8
OBJECT004
10
-512.000000
20
-256.000000
30
1056.000000
70
192
0
VERTEX
8
OBJECT004
10
-463.000000
20
-97.774124
30
1056.000000
70
192
0
VERTEX
8
OBJECT004
10
0
20
0
30
0
70
128
71
2
72
3
73
-4
0
VERTEX
8
OBJECT004
10
0
20
0
30
0
70
128
71
-2
72
4
73
1
0
VERTEX
8
OBJECT004
10
0
20
0
30
0
70
128
71
6
72
7
73
-8
0
VERTEX
8
OBJECT004
10
0
20
0
30
0
70
128
71
-6
72
8
73
5
0
VERTEX
8
OBJECT004
10
0
20
0
30
0
70
128
71
1
72
4
73
-5
0
VERTEX
8
OBJECT004
10
0
20
0
30
0
70
128
71
-1
72
5
73
8
0
VERTEX
8
OBJECT004
10
0
20
0
30
0
70
128
71
7
72
6
73
-3
0
VERTEX
8
OBJECT004
10
0
20
0
30
0
70
128
71
-7
72
3
73
2
0
VERTEX
8
OBJECT004
10
0
20
0
30
0
70
128
71
1
72
8
73
-7
0
VERTEX
8
OBJECT004
10
0
20
0
30
0
70
128
71
-1
72
7
73
2
0
VERTEX
8
OBJECT004
10
0
20
0
30
0
70
128
71
3
72
6
73
-5
0
VERTEX
8
OBJECT004
10
0
20
0
30
0
70
128
71
-3
72
5
73
4
0
SEQEND
8
OBJECT004
0
POLYLINE
8
OBJECT005
66
1
70
64
71
8
72
12
62
50
0
VERTEX
8
OBJECT005
10
-512.000000
20
-256.000000
30
896.000000
70
192
0
VERTEX
8
OBJECT005
10
-463.000000
20
-414.225891
30
896.000000
70
192
0
VERTEX
8
OBJECT005
10
-447.500000
20
-402.661194
30
896.000000
70
192
0
VERTEX
8
OBJECT005
10
-493.000000
20
-256.000000
30
896.000000
70
192
0
VERTEX
8
OBJECT005
10
-493.000000
20
-256.000000
30
1056.000000
70
192
0
VERTEX
8
OBJECT005
10
-447.500000
20
-402.661194
30
1056.000000
70
192
0
VERTEX
8
OBJECT005
10
-463.000000
20
-414.225891
30
1056.000000
70
192
0
VERTEX
8
OBJECT005
10
-512.000000
20
-256.000000
30
1056.000000
70
192
0
VERTEX
8
OBJECT005
10
0
20
0
30
0
70
128
71
2
72
3
73
-4
0
VERTEX
8
OBJECT005
10
0
20
0
30
0
70
128
71
-2
72
4
73
1
0
VERTEX
8
OBJECT005
10
0
20
0
30
0
70
128
71
6
72
7
73
-8
0
VERTEX
8
OBJECT005
10
0
20
0
30
0
70
128
71
-6
72
8
73
5
0
VERTEX
8
OBJECT005
10
0
20
0
30
0
70
128
71
1
72
4
73
-5
0
VERTEX
8
OBJECT005
10
0
20
0
30
0
70
128
71
-1
72
5
73
8
0
VERTEX
8
OBJECT005
10
0
20
0
30
0
70
128
71
7
72
6
73
-3
0
VERTEX
8
OBJECT005
10
0
20
0
30
0
70
128
71
-7
72
3
73
2
0
VERTEX
8
OBJECT005
10
0
20
0
30
0
70
128
71
1
72
8
73
-7
0
VERTEX
8
OBJECT005
10
0
20
0
30
0
70
128
71
-1
72
7
73
2
0
VERTEX
8
OBJECT005
10
0
20
0
30
0
70
128
71
3
72
6
73
-5
0
VERTEX
8
OBJECT005
10
0
20
0
30
0
70
128
71
-3
72
5
73
4
0
SEQEND
8
OBJECT005
0
POLYLINE
8
OBJECT006
66
1
70
64
71
8
72
12
62
50
0
VERTEX
8
OBJECT006
10
-463.000000
20
-414.225891
30
896.000000
70
192
0
VERTEX
8
OBJECT006
10
-335.000000
20
-512.000000
30
896.000000
70
192
0
VERTEX
8
OBJECT006
10
-329.000000
20
-493.075989
30
896.000000
70
192
0
VERTEX
8
OBJECT006
10
-447.500000
20
-402.661194
30
896.000000
70
192
0
VERTEX
8
OBJECT006
10
-447.500000
20
-402.661194
30
1056.000000
70
192
0
VERTEX
8
OBJECT006
10
-329.000000
20
-493.075989
30
1056.000000
70
192
0
VERTEX
8
OBJECT006
10
-335.000000
20
-512.000000
30
1056.000000
70
192
0
VERTEX
8
OBJECT006
10
-463.000000
20
-414.225891
30
1056.000000
70
192
0
VERTEX
8
OBJECT006
10
0
20
0
30
0
70
128
71
2
72
3
73
-4
0
VERTEX
8
OBJECT006
10
0
20
0
30
0
70
128
71
-2
72
4
73
1
0
VERTEX
8
OBJECT006
10
0
20
0
30
0
70
128
71
6
72
7
73
-8
0
VERTEX
8
OBJECT006
10
0
20
0
30
0
70
128
71
-6
72
8
73
5
0
VERTEX
8
OBJECT006
10
0
20
0
30
0
70
128
71
1
72
4
73
-5
0
VERTEX
8
OBJECT006
10
0
20
0
30
0
70
128
71
-1
72
5
73
8
0
VERTEX
8
OBJECT006
10
0
20
0
30
0
70
128
71
7
72
6
73
-3
0
VERTEX
8
OBJECT006
10
0
20
0
30
0
70
128
71
-7
72
3
73
2
0
VERTEX
8
OBJECT006
10
0
20
0
30
0
70
128
71
1
72
8
73
-7
0
VERTEX
8
OBJECT006
10
0
20
0
30
0
70
128
71
-1
72
7
73
2
0
VERTEX
8
OBJECT006
10
0
20
0
30
0
70
128
71
3
72
6
73
-5
0
VERTEX
8
OBJECT006
10
0
20
0
30
0
70
128
71
-3
72
5
73
4
0
SEQEND
8
OBJECT006
0
POLYLINE
8
OBJECT007
66
1
70
64
71
8
72
12
62
50
0
VERTEX
8
OBJECT007
10
-177.000000
20
-512.000000
30
896.000000
70
192
0
VERTEX
8
OBJECT007
10
-49.000000
20
-414.225891
30
896.000000
70
192
0
VERTEX
8
OBJECT007
10
-64.500000
20
-402.661194
30
896.000000
70
192
0
VERTEX
8
OBJECT007
10
-183.000000
20
-493.075989
30
896.000000
70
192
0
VERTEX
8
OBJECT007
10
-183.000000
20
-493.075989
30
1056.000000
70
192
0
VERTEX
8
OBJECT007
10
-64.500000
20
-402.661194
30
1056.000000
70
192
0
VERTEX
8
OBJECT007
10
-49.000000
20
-414.225891
30
1056.000000
70
192
0
VERTEX
8
OBJECT007
10
-177.000000
20
-512.000000
30
1056.000000
70
192
0
VERTEX
8
OBJECT007
10
0
20
0
30
0
70
128
71
2
72
3
73
-4
0
VERTEX
8
OBJECT007
10
0
20
0
30
0
70
128
71
-2
72
4
73
1
0
VERTEX
8
OBJECT007
10
0
20
0
30
0
70
128
71
6
72
7
73
-8
0
VERTEX
8
OBJECT007
10
0
20
0
30
0
70
128
71
-6
72
8
73
5
0
VERTEX
8
OBJECT007
10
0
20
0
30
0
70
128
71
1
72
4
73
-5
0
VERTEX
8
OBJECT007
10
0
20
0
30
0
70
128
71
-1
72
5
73
8
0
VERTEX
8
OBJECT007
10
0
20
0
30
0
70
128
71
7
72
6
73
-3
0
VERTEX
8
OBJECT007
10
0
20
0
30
0
70
128
71
-7
72
3
73
2
0
VERTEX
8
OBJECT007
10
0
20
0
30
0
70
128
71
1
72
8
73
-7
0
VERTEX
8
OBJECT007
10
0
20
0
30
0
70
128
71
-1
72
7
73
2
0
VERTEX
8
OBJECT007
10
0
20
0
30
0
70
128
71
3
72
6
73
-5
0
VERTEX
8
OBJECT007
10
0
20
0
30
0
70
128
71
-3
72
5
73
4
0
SEQEND
8
OBJECT007
0
POLYLINE
8
OBJECT008
66
1
70
64
71
8
72
12
62
50
0
VERTEX
8
OBJECT008
10
-49.000000
20
-414.225891
30
896.000000
70
192
0
VERTEX
8
OBJECT008
10
0.000000
20
-256.000000
30
896.000000
70
192
0
VERTEX
8
OBJECT008
10
-19.000000
20
-256.000000
30
896.000000
70
192
0
VERTEX
8
OBJECT008
10
-64.500000
20
-402.661194
30
896.000000
70
192
0
VERTEX
8
OBJECT008
10
-64.500000
20
-402.661194
30
1056.000000
70
192
0
VERTEX
8
OBJECT008
10
-19.000000
20
-256.000000
30
1056.000000
70
192
0
VERTEX
8
OBJECT008
10
0.000000
20
-256.000000
30
1056.000000
70
192
0
VERTEX
8
OBJECT008
10
-49.000000
20
-414.225891
30
1056.000000
70
192
0
VERTEX
8
OBJECT008
10
0
20
0
30
0
70
128
71
2
72
3
73
-4
0
VERTEX
8
OBJECT008
10
0
20
0
30
0
70
128
71
-2
72
4
73
1
0
VERTEX
8
OBJECT008
10
0
20
0
30
0
70
128
71
6
72
7
73
-8
0
VERTEX
8
OBJECT008
10
0
20
0
30
0
70
128
71
-6
72
8
73
5
0
VERTEX
8
OBJECT008
10
0
20
0
30
0
70
128
71
1
72
4
73
-5
0
VERTEX
8
OBJECT008
10
0
20
0
30
0
70
128
71
-1
72
5
73
8
0
VERTEX
8
OBJECT008
10
0
20
0
30
0
70
128
71
7
72
6
73
-3
0
VERTEX
8
OBJECT008
10
0
20
0
30
0
70
128
71
-7
72
3
73
2
0
VERTEX
8
OBJECT008
10
0
20
0
30
0
70
128
71
1
72
8
73
-7
0
VERTEX
8
OBJECT008
10
0
20
0
30
0
70
128
71
-1
72
7
73
2
0
VERTEX
8
OBJECT008
10
0
20
0
30
0
70
128
71
3
72
6
73
-5
0
VERTEX
8
OBJECT008
10
0
20
0
30
0
70
128
71
-3
72
5
73
4
0
SEQEND
8
OBJECT008
0
POLYLINE
8
OBJECT009
66
1
70
64
71
8
72
12
62
50
0
VERTEX
8
OBJECT009
10
-296.000000
20
-493.075989
30
1056.000000
70
192
0
VERTEX
8
OBJECT009
10
-183.000000
20
-493.075989
30
1056.000000
70
192
0
VERTEX
8
OBJECT009
10
-177.000000
20
-512.000000
30
1056.000000
70
192
0
VERTEX
8
OBJECT009
10
-296.000000
20
-512.000000
30
1056.000000
70
192
0
VERTEX
8
OBJECT009
10
-177.000000
20
-512.000000
30
992.000000
70
192
0
VERTEX
8
OBJECT009
10
-183.000000
20
-493.075989
30
992.000000
70
192
0
VERTEX
8
OBJECT009
10
-296.000000
20
-512.000000
30
992.000000
70
192
0
VERTEX
8
OBJECT009
10
-296.000000
20
-493.075989
30
992.000000
70
192
0
VERTEX
8
OBJECT009
10
0
20
0
30
0
70
128
71
2
72
3
73
-4
0
VERTEX
8
OBJECT009
10
0
20
0
30
0
70
128
71
-2
72
4
73
1
0
VERTEX
8
OBJECT009
10
0
20
0
30
0
70
128
71
3
72
2
73
-6
0
VERTEX
8
OBJECT009
10
0
20
0
30
0
70
128
71
-3
72
6
73
5
0
VERTEX
8
OBJECT009
10
0
20
0
30
0
70
128
71
4
72
3
73
-5
0
VERTEX
8
OBJECT009
10
0
20
0
30
0
70
128
71
-4
72
5
73
7
0
VERTEX
8
OBJECT009
10
0
20
0
30
0
70
128
71
2
72
1
73
-8
0
VERTEX
8
OBJECT009
10
0
20
0
30
0
70
128
71
-2
72
8
73
6
0
VERTEX
8
OBJECT009
10
0
20
0
30
0
70
128
71
1
72
4
73
-7
0
VERTEX
8
OBJECT009
10
0
20
0
30
0
70
128
71
-1
72
7
73
8
0
VERTEX
8
OBJECT009
10
0
20
0
30
0
70
128
71
5
72
6
73
-8
0
VERTEX
8
OBJECT009
10
0
20
0
30
0
70
128
71
-5
72
8
73
7
0
SEQEND
8
OBJECT009
0
POLYLINE
8
OBJECT010
66
1
70
64
71
8
72
12
62
50
0
VERTEX
8
OBJECT010
10
-296.000000
20
-512.000000
30
1056.000000
70
192
0
VERTEX
8
OBJECT010
10
-335.000000
20
-512.000000
30
1056.000000
70
192
0
VERTEX
8
OBJECT010
10
-329.000000
20
-493.075989
30
1056.000000
70
192
0
VERTEX
8
OBJECT010
10
-296.000000
20
-493.075989
30
1056.000000
70
192
0
VERTEX
8
OBJECT010
10
-329.000000
20
-493.075989
30
896.000000
70
192
0
VERTEX
8
OBJECT010
10
-335.000000
20
-512.000000
30
896.000000
70
192
0
VERTEX
8
OBJECT010
10
-296.000000
20
-512.000000
30
896.000000
70
192
0
VERTEX
8
OBJECT010
10
-296.000000
20
-493.075989
30
896.000000
70
192
0
VERTEX
8
OBJECT010
10
0
20
0
30
0
70
128
71
2
72
3
73
-4
0
VERTEX
8
OBJECT010
10
0
20
0
30
0
70
128
71
-2
72
4
73
1
0
VERTEX
8
OBJECT010
10
0
20
0
30
0
70
128
71
3
72
2
73
-6
0
VERTEX
8
OBJECT010
10
0
20
0
30
0
70
128
71
-3
72
6
73
5
0
VERTEX
8
OBJECT010
10
0
20
0
30
0
70
128
71
2
72
1
73
-7
0
VERTEX
8
OBJECT010
10
0
20
0
30
0
70
128
71
-2
72
7
73
6
0
VERTEX
8
OBJECT010
10
0
20
0
30
0
70
128
71
4
72
3
73
-5
0
VERTEX
8
OBJECT010
10
0
20
0
30
0
70
128
71
-4
72
5
73
8
0
VERTEX
8
OBJECT010
10
0
20
0
30
0
70
128
71
1
72
4
73
-8
0
VERTEX
8
OBJECT010
10
0
20
0
30
0
70
128
71
-1
72
8
73
7
0
VERTEX
8
OBJECT010
10
0
20
0
30
0
70
128
71
5
72
6
73
-7
0
VERTEX
8
OBJECT010
10
0
20
0
30
0
70
128
71
-5
72
7
73
8
0
SEQEND
8
OBJECT010
0
POLYLINE
8
OBJECT011
66
1
70
64
71
8
72
12
62
50
0
VERTEX
8
OBJECT011
10
-296.000000
20
-512.000000
30
896.000000
70
192
0
VERTEX
8
OBJECT011
10
-177.000000
20
-512.000000
30
896.000000
70
192
0
VERTEX
8
OBJECT011
10
-183.000000
20
-493.075989
30
896.000000
70
192
0
VERTEX
8
OBJECT011
10
-296.000000
20
-493.075989
30
896.000000
70
192
0
VERTEX
8
OBJECT011
10
-183.000000
20
-493.075989
30
928.000000
70
192
0
VERTEX
8
OBJECT011
10
-177.000000
20
-512.000000
30
928.000000
70
192
0
VERTEX
8
OBJECT011
10
-296.000000
20
-512.000000
30
928.000000
70
192
0
VERTEX
8
OBJECT011
10
-296.000000
20
-493.075989
30
928.000000
70
192
0
VERTEX
8
OBJECT011
10
0
20
0
30
0
70
128
71
2
72
3
73
-4
0
VERTEX
8
OBJECT011
10
0
20
0
30
0
70
128
71
-2
72
4
73
1
0
VERTEX
8
OBJECT011
10
0
20
0
30
0
70
128
71
3
72
2
73
-6
0
VERTEX
8
OBJECT011
10
0
20
0
30
0
70
128
71
-3
72
6
73
5
0
VERTEX
8
OBJECT011
10
0
20
0
30
0
70
128
71
2
72
1
73
-7
0
VERTEX
8
OBJECT011
10
0
20
0
30
0
70
128
71
-2
72
7
73
6
0
VERTEX
8
OBJECT011
10
0
20
0
30
0
70
128
71
4
72
3
73
-5
0
VERTEX
8
OBJECT011
10
0
20
0
30
0
70
128
71
-4
72
5
73
8
0
VERTEX
8
OBJECT011
10
0
20
0
30
0
70
128
71
1
72
4
73
-8
0
VERTEX
8
OBJECT011
10
0
20
0
30
0
70
128
71
-1
72
8
73
7
0
VERTEX
8
OBJECT011
10
0
20
0
30
0
70
128
71
5
72
6
73
-7
0
VERTEX
8
OBJECT011
10
0
20
0
30
0
70
128
71
-5
72
7
73
8
0
SEQEND
8
OBJECT011
0
POLYLINE
8
OBJECT012
66
1
70
64
71
8
72
12
62
50
0
VERTEX
8
OBJECT012
10
-200.000000
20
-512.000000
30
928.000000
70
192
0
VERTEX
8
OBJECT012
10
-296.000000
20
-512.000000
30
928.000000
70
192
0
VERTEX
8
OBJECT012
10
-296.000000
20
-512.000000
30
992.000000
70
192
0
VERTEX
8
OBJECT012
10
-200.000000
20
-512.000000
30
992.000000
70
192
0
VERTEX
8
OBJECT012
10
-296.000000
20
-496.000000
30
992.000000
70
192
0
VERTEX
8
OBJECT012
10
-296.000000
20
-496.000000
30
928.000000
70
192
0
VERTEX
8
OBJECT012
10
-200.000000
20
-496.000000
30
928.000000
70
192
0
VERTEX
8
OBJECT012
10
-200.000000
20
-496.000000
30
992.000000
70
192
0
VERTEX
8
OBJECT012
10
0
20
0
30
0
70
128
71
2
72
3
73
-4
0
VERTEX
8
OBJECT012
10
0
20
0
30
0
70
128
71
-2
72
4
73
1
0
VERTEX
8
OBJECT012
10
0
20
0
30
0
70
128
71
6
72
7
73
-8
0
VERTEX
8
OBJECT012
10
0
20
0
30
0
70
128
71
-6
72
8
73
5
0
VERTEX
8
OBJECT012
10
0
20
0
30
0
70
128
71
2
72
6
73
-5
0
VERTEX
8
OBJECT012
10
0
20
0
30
0
70
128
71
-2
72
5
73
3
0
VERTEX
8
OBJECT012
10
0
20
0
30
0
70
128
71
8
72
4
73
-3
0
VERTEX
8
OBJECT012
10
0
20
0
30
0
70
128
71
-8
72
3
73
5
0
VERTEX
8
OBJECT012
10
0
20
0
30
0
70
128
71
1
72
7
73
-6
0
VERTEX
8
OBJECT012
10
0
20
0
30
0
70
128
71
-1
72
6
73
2
0
VERTEX
8
OBJECT012
10
0
20
0
30
0
70
128
71
7
72
1
73
-4
0
VERTEX
8
OBJECT012
10
0
20
0
30
0
70
128
71
-7
72
4
73
8
0
SEQEND
8
OBJECT012
0
POLYLINE
8
OBJECT013
66
1
70
64
71
8
72
12
62
50
0
VERTEX
8
OBJECT013
10
-183.000000
20
-493.075989
30
992.000000
70
192
0
VERTEX
8
OBJECT013
10
-183.000000
20
-493.075989
30
928.000000
70
192
0
VERTEX
8
OBJECT013
10
-177.000000
20
-512.000000
30
928.000000
70
192
0
VERTEX
8
OBJECT013
10
-177.000000
20
-512.000000
30
992.000000
70
192
0
VERTEX
8
OBJECT013
10
-200.000000
20
-512.000000
30
928.000000
70
192
0
VERTEX
8
OBJECT013
10
-200.000000
20
-512.000000
30
992.000000
70
192
0
VERTEX
8
OBJECT013
10
-200.000000
20
-493.075989
30
928.000000
70
192
0
VERTEX
8
OBJECT013
10
-200.000000
20
-493.075989
30
992.000000
70
192
0
VERTEX
8
OBJECT013
10
0
20
0
30
0
70
128
71
2
72
3
73
-4
0
VERTEX
8
OBJECT013
10
0
20
0
30
0
70
128
71
-2
72
4
73
1
0
VERTEX
8
OBJECT013
10
0
20
0
30
0
70
128
71
3
72
5
73
-6
0
VERTEX
8
OBJECT013
10
0
20
0
30
0
70
128
71
-3
72
6
73
4
0
VERTEX
8
OBJECT013
10
0
20
0
30
0
70
128
71
2
72
1
73
-8
0
VERTEX
8
OBJECT013
10
0
20
0
30
0
70
128
71
-2
72
8
73
7
0
VERTEX
8
OBJECT013
10
0
20
0
30
0
70
128
71
1
72
4
73
-6
0
VERTEX
8
OBJECT013
10
0
20
0
30
0
70
128
71
-1
72
6
73
8
0
VERTEX
8
OBJECT013
10
0
20
0
30
0
70
128
71
3
72
2
73
-7
0
VERTEX
8
OBJECT013
10
0
20
0
30
0
70
128
71
-3
72
7
73
5
0
VERTEX
8
OBJECT013
10
0
20
0
30
0
70
128
71
5
72
7
73
-8
0
VERTEX
8
OBJECT013
10
0
20
0
30
0
70
128
71
-5
72
8
73
6
0
SEQEND
8
OBJECT013
0
POLYLINE
8
OBJECT014
66
1
70
64
71
8
72
12
62
50
0
VERTEX
8
OBJECT014
10
-512.000000
20
0.000000
30
897.000000
70
192
0
VERTEX
8
OBJECT014
10
0.000000
20
0.000000
30
897.000000
70
192
0
VERTEX
8
OBJECT014
10
0.000000
20
-512.000000
30
897.000000
70
192
0
VERTEX
8
OBJECT014
10
-512.000000
20
-512.000000
30
897.000000
70
192
0
VERTEX
8
OBJECT014
10
-512.000000
20
-512.000000
30
896.000000
70
192
0
VERTEX
8
OBJECT014
10
0.000000
20
-512.000000
30
896.000000
70
192
0
VERTEX
8
OBJECT014
10
0.000000
20
0.000000
30
896.000000
70
192
0
VERTEX
8
OBJECT014
10
-512.000000
20
0.000000
30
896.000000
70
192
0
VERTEX
8
OBJECT014
10
0
20
0
30
0
70
128
71
2
72
3
73
-4
0
VERTEX
8
OBJECT014
10
0
20
0
30
0
70
128
71
-2
72
4
73
1
0
VERTEX
8
OBJECT014
10
0
20
0
30
0
70
128
71
6
72
7
73
-8
0
VERTEX
8
OBJECT014
10
0
20
0
30
0
70
128
71
-6
72
8
73
5
0
VERTEX
8
OBJECT014
10
0
20
0
30
0
70
128
71
4
72
5
73
-8
0
VERTEX
8
OBJECT014
10
0
20
0
30
0
70
128
71
-4
72
8
73
1
0
VERTEX
8
OBJECT014
10
0
20
0
30
0
70
128
71
6
72
3
73
-2
0
VERTEX
8
OBJECT014
10
0
20
0
30
0
70
128
71
-6
72
2
73
7
0
VERTEX
8
OBJECT014
10
0
20
0
30
0
70
128
71
1
72
8
73
-7
0
VERTEX
8
OBJECT014
10
0
20
0
30
0
70
128
71
-1
72
7
73
2
0
VERTEX
8
OBJECT014
10
0
20
0
30
0
70
128
71
5
72
4
73
-3
0
VERTEX
8
OBJECT014
10
0
20
0
30
0
70
128
71
-5
72
3
73
6
0
SEQEND
8
OBJECT014
0
POLYLINE
8
OBJECT015
66
1
70
64
71
8
72
12
62
50
0
VERTEX
8
OBJECT015
10
-512.000000
20
0.000000
30
1057.000000
70
192
0
VERTEX
8
OBJECT015
10
0.000000
20
0.000000
30
1057.000000
70
192
0
VERTEX
8
OBJECT015
10
0.000000
20
-512.000000
30
1057.000000
70
192
0
VERTEX
8
OBJECT015
10
-512.000000
20
-512.000000
30
1057.000000
70
192
0
VERTEX
8
OBJECT015
10
-512.000000
20
-512.000000
30
1056.000000
70
192
0
VERTEX
8
OBJECT015
10
0.000000
20
-512.000000
30
1056.000000
70
192
0
VERTEX
8
OBJECT015
10
0.000000
20
0.000000
30
1056.000000
70
192
0
VERTEX
8
OBJECT015
10
-512.000000
20
0.000000
30
1056.000000
70
192
0
VERTEX
8
OBJECT015
10
0
20
0
30
0
70
128
71
2
72
3
73
-4
0
VERTEX
8
OBJECT015
10
0
20
0
30
0
70
128
71
-2
72
4
73
1
0
VERTEX
8
OBJECT015
10
0
20
0
30
0
70
128
71
6
72
7
73
-8
0
VERTEX
8
OBJECT015
10
0
20
0
30
0
70
128
71
-6
72
8
73
5
0
VERTEX
8
OBJECT015
10
0
20
0
30
0
70
128
71
4
72
5
73
-8
0
VERTEX
8
OBJECT015
10
0
20
0
30
0
70
128
71
-4
72
8
73
1
0
VERTEX
8
OBJECT015
10
0
20
0
30
0
70
128
71
6
72
3
73
-2
0
VERTEX
8
OBJECT015
10
0
20
0
30
0
70
128
71
-6
72
2
73
7
0
VERTEX
8
OBJECT015
10
0
20
0
30
0
70
128
71
1
72
8
73
-7
0
VERTEX
8
OBJECT015
10
0
20
0
30
0
70
128
71
-1
72
7
73
2
0
VERTEX
8
OBJECT015
10
0
20
0
30
0
70
128
71
5
72
4
73
-3
0
VERTEX
8
OBJECT015
10
0
20
0
30
0
70
128
71
-5
72
3
73
6
0
SEQEND
8
OBJECT015
0
POLYLINE
8
OBJECT016
66
1
70
64
71
8
72
12
62
50
0
VERTEX
8
OBJECT016
10
-488.000000
20
-200.000000
30
1057.000000
70
192
0
VERTEX
8
OBJECT016
10
-224.000000
20
-200.000000
30
1057.000000
70
192
0
VERTEX
8
OBJECT016
10
-224.000000
20
-208.000000
30
1057.000000
70
192
0
VERTEX
8
OBJECT016
10
-488.000000
20
-208.000000
30
1057.000000
70
192
0
VERTEX
8
OBJECT016
10
-488.000000
20
-208.000000
30
896.000000
70
192
0
VERTEX
8
OBJECT016
10
-224.000000
20
-208.000000
30
896.000000
70
192
0
VERTEX
8
OBJECT016
10
-224.000000
20
-200.000000
30
896.000000
70
192
0
VERTEX
8
OBJECT016
10
-488.000000
20
-200.000000
30
896.000000
70
192
0
VERTEX
8
OBJECT016
10
0
20
0
30
0
70
128
71
2
72
3
73
-4
0
VERTEX
8
OBJECT016
10
0
20
0
30
0
70
128
71
-2
72
4
73
1
0
VERTEX
8
OBJECT016
10
0
20
0
30
0
70
128
71
6
72
7
73
-8
0
VERTEX
8
OBJECT016
10
0
20
0
30
0
70
128
71
-6
72
8
73
5
0
VERTEX
8
OBJECT016
10
0
20
0
30
0
70
128
71
4
72
5
73
-8
0
VERTEX
8
OBJECT016
10
0
20
0
30
0
70
128
71
-4
72
8
73
1
0
VERTEX
8
OBJECT016
10
0
20
0
30
0
70
128
71
6
72
3
73
-2
0
VERTEX
8
OBJECT016
10
0
20
0
30
0
70
128
71
-6
72
2
73
7
0
VERTEX
8
OBJECT016
10
0
20
0
30
0
70
128
71
1
72
8
73
-7
0
VERTEX
8
OBJECT016
10
0
20
0
30
0
70
128
71
-1
72
7
73
2
0
VERTEX
8
OBJECT016
10
0
20
0
30
0
70
128
71
5
72
4
73
-3
0
VERTEX
8
OBJECT016
10
0
20
0
30
0
70
128
71
-5
72
3
73
6
0
SEQEND
8
OBJECT016
0
POLYLINE
8
OBJECT017
66
1
70
64
71
8
72
12
62
50
0
VERTEX
8
OBJECT017
10
-152.000000
20
-200.000000
30
1057.000000
70
192
0
VERTEX
8
OBJECT017
10
-16.000000
20
-200.000000
30
1057.000000
70
192
0
VERTEX
8
OBJECT017
10
-16.000000
20
-208.000000
30
1057.000000
70
192
0
VERTEX
8
OBJECT017
10
-152.000000
20
-208.000000
30
1057.000000
70
192
0
VERTEX
8
OBJECT017
10
-152.000000
20
-208.000000
30
896.000000
70
192
0
VERTEX
8
OBJECT017
10
-16.000000
20
-208.000000
30
896.000000
70
192
0
VERTEX
8
OBJECT017
10
-16.000000
20
-200.000000
30
896.000000
70
192
0
VERTEX
8
OBJECT017
10
-152.000000
20
-200.000000
30
896.000000
70
192
0
VERTEX
8
OBJECT017
10
0
20
0
30
0
70
128
71
2
72
3
73
-4
0
VERTEX
8
OBJECT017
10
0
20
0
30
0
70
128
71
-2
72
4
73
1
0
VERTEX
8
OBJECT017
10
0
20
0
30
0
70
128
71
6
72
7
73
-8
0
VERTEX
8
OBJECT017
10
0
20
0
30
0
70
128
71
-6
72
8
73
5
0
VERTEX
8
OBJECT017
10
0
20
0
30
0
70
128
71
4
72
5
73
-8
0
VERTEX
8
OBJECT017
10
0
20
0
30
0
70
128
71
-4
72
8
73
1
0
VERTEX
8
OBJECT017
10
0
20
0
30
0
70
128
71
6
72
3
73
-2
0
VERTEX
8
OBJECT017
10
0
20
0
30
0
70
128
71
-6
72
2
73
7
0
VERTEX
8
OBJECT017
10
0
20
0
30
0
70
128
71
1
72
8
73
-7
0
VERTEX
8
OBJECT017
10
0
20
0
30
0
70
128
71
-1
72
7
73
2
0
VERTEX
8
OBJECT017
10
0
20
0
30
0
70
128
71
5
72
4
73
-3
0
VERTEX
8
OBJECT017
10
0
20
0
30
0
70
128
71
-5
72
3
73
6
0
SEQEND
8
OBJECT017
0
POLYLINE
8
OBJECT018
66
1
70
64
71
8
72
12
62
50
0
VERTEX
8
OBJECT018
10
-224.000000
20
-200.000000
30
1057.000000
70
192
0
VERTEX
8
OBJECT018
10
-152.000000
20
-200.000000
30
1057.000000
70
192
0
VERTEX
8
OBJECT018
10
-152.000000
20
-208.000000
30
1057.000000
70
192
0
VERTEX
8
OBJECT018
10
-224.000000
20
-208.000000
30
1057.000000
70
192
0
VERTEX
8
OBJECT018
10
-224.000000
20
-208.000000
30
1007.999939
70
192
0
VERTEX
8
OBJECT018
10
-152.000000
20
-208.000000
30
1007.999939
70
192
0
VERTEX
8
OBJECT018
10
-152.000000
20
-200.000000
30
1007.999939
70
192
0
VERTEX
8
OBJECT018
10
-224.000000
20
-200.000000
30
1007.999939
70
192
0
VERTEX
8
OBJECT018
10
0
20
0
30
0
70
128
71
2
72
3
73
-4
0
VERTEX
8
OBJECT018
10
0
20
0
30
0
70
128
71
-2
72
4
73
1
0
VERTEX
8
OBJECT018
10
0
20
0
30
0
70
128
71
6
72
7
73
-8
0
VERTEX
8
OBJECT018
10
0
20
0
30
0
70
128
71
-6
72
8
73
5
0
VERTEX
8
OBJECT018
10
0
20
0
30
0
70
128
71
4
72
5
73
-8
0
VERTEX
8
OBJECT018
10
0
20
0
30
0
70
128
71
-4
72
8
73
1
0
VERTEX
8
OBJECT018
10
0
20
0
30
0
70
128
71
6
72
3
73
-2
0
VERTEX
8
OBJECT018
10
0
20
0
30
0
70
128
71
-6
72
2
73
7
0
VERTEX
8
OBJECT018
10
0
20
0
30
0
70
128
71
1
72
8
73
-7
0
VERTEX
8
OBJECT018
10
0
20
0
30
0
70
128
71
-1
72
7
73
2
0
VERTEX
8
OBJECT018
10
0
20
0
30
0
70
128
71
5
72
4
73
-3
0
VERTEX
8
OBJECT018
10
0
20
0
30
0
70
128
71
-5
72
3
73
6
0
SEQEND
8
OBJECT018
0
POLYLINE
8
OBJECT019
66
1
70
64
71
6
72
4
62
50
0
VERTEX
8
OBJECT019
10
-211.092102
20
-173.644577
30
896.000000
70
192
0
VERTEX
8
OBJECT019
10
-147.817261
20
-208.000000
30
896.000000
70
192
0
VERTEX
8
OBJECT019
10
-144.000000
20
-200.969467
30
896.000000
70
192
0
VERTEX
8
OBJECT019
10
-207.274826
20
-166.614029
30
896.000000
70
192
0
VERTEX
8
OBJECT019
10
-147.817261
20
-208.000000
30
1008.000000
70
192
0
VERTEX
8
OBJECT019
10
-144.000000
20
-200.969467
30
1008.000000
70
192
0
VERTEX
8
OBJECT019
10
0
20
0
30
0
70
128
71
2
72
3
73
-4
0
VERTEX
8
OBJECT019
10
0
20
0
30
0
70
128
71
-2
72
4
73
1
0
VERTEX
8
OBJECT019
10
0
20
0
30
0
70
128
71
2
72
5
73
-6
0
VERTEX
8
OBJECT019
10
0
20
0
30
0
70
128
71
-2
72
6
73
3
0
SEQEND
8
OBJECT019
0
POLYLINE
8
OBJECT020
66
1
70
64
71
81
72
128
62
50
0
VERTEX
8
OBJECT020
10
-194.859680
20
-153.234161
30
1007.391968
70
192
0
VERTEX
8
OBJECT020
10
-187.200821
20
-154.929825
30
1005.591980
70
192
0
VERTEX
8
OBJECT020
10
-181.573944
20
-161.975021
30
1008.355042
70
192
0
VERTEX
8
OBJECT020
10
-174.420517
20
-165.053604
30
1008.000000
70
192
0
VERTEX
8
OBJECT020
10
-168.081390
20
-173.043839
30
1008.000000
70
192
0
VERTEX
8
OBJECT020
10
-162.820068
20
-184.012115
30
1008.000000
70
192
0
VERTEX
8
OBJECT020
10
-157.928619
20
-192.497131
30
1008.000000
70
192
0
VERTEX
8
OBJECT020
10
-153.637115
20
-201.227936
30
1008.000000
70
192
0
VERTEX
8
OBJECT020
10
-147.466751
20
-207.994370
30
1008.000000
70
192
0
VERTEX
8
OBJECT020
10
-194.322327
20
-152.243088
30
1007.414246
70
192
0
VERTEX
8
OBJECT020
10
-186.734161
20
-154.169174
30
1005.614197
70
192
0
VERTEX
8
OBJECT020
10
-181.096161
20
-161.222534
30
1008.343689
70
192
0
VERTEX
8
OBJECT020
10
-173.940353
20
-164.101379
30
1008.000000
70
192
0
VERTEX
8
OBJECT020
10
-167.563248
20
-171.932312
30
1008.000000
70
192
0
VERTEX
8
OBJECT020
10
-162.235687
20
-182.781982
30
1008.000000
70
192
0
VERTEX
8
OBJECT020
10
-157.314423
20
-191.307800
30
1008.000000
70
192
0
VERTEX
8
OBJECT020
10
-153.048233
20
-200.204498
30
1008.000000
70
192
0
VERTEX
8
OBJECT020
10
-146.980438
20
-207.073318
30
1008.000000
70
192
0
VERTEX
8
OBJECT020
10
-193.825439
20
-151.358383
30
1007.480896
70
192
0
VERTEX
8
OBJECT020
10
-186.300858
20
-153.569183
30
1005.680908
70
192
0
VERTEX
8
OBJECT020
10
-180.623657
20
-160.531540
30
1008.309937
70
192
0
VERTEX
8
OBJECT020
10
-173.469528
20
-163.212967
30
1008.000000
70
192
0
VERTEX
8
OBJECT020
10
-167.059784
20
-170.895569
30
1008.000000
70
192
0
VERTEX
8
OBJECT020
10
-161.668701
20
-181.605026
30
1008.000000
70
192
0
VERTEX
8
OBJECT020
10
-156.715637
20
-190.151794
30
1008.000000
70
192
0
VERTEX
8
OBJECT020
10
-152.456390
20
-199.159409
30
1008.000000
70
192
0
VERTEX
8
OBJECT020
10
-146.495102
20
-206.156174
30
1008.000000
70
192
0
VERTEX
8
OBJECT020
10
-193.361313
20
-150.568512
30
1007.591980
70
192
0
VERTEX
8
OBJECT020
10
-185.885178
20
-152.932831
30
1005.791992
70
192
0
VERTEX
8
OBJECT020
10
-180.151108
20
-159.732422
30
1008.254150
70
192
0
VERTEX
8
OBJECT020
10
-173.006775
20
-162.383804
30
1008.000000
70
192
0
VERTEX
8
OBJECT020
10
-166.569336
20
-169.928207
30
1008.000000
70
192
0
VERTEX
8
OBJECT020
10
-161.117645
20
-180.478790
30
1008.000000
70
192
0
VERTEX
8
OBJECT020
10
-156.131302
20
-189.028183
30
1008.000000
70
192
0
VERTEX
8
OBJECT020
10
-151.864716
20
-198.112686
30
1008.000000
70
192
0
VERTEX
8
OBJECT020
10
-146.010681
20
-205.242920
30
1008.000000
70
192
0
VERTEX
8
OBJECT020
10
-192.924210
20
-149.864304
30
1007.747559
70
192
0
VERTEX
8
OBJECT020
10
-185.489075
20
-152.259430
30
1005.947571
70
192
0
VERTEX
8
OBJECT020
10
-179.682144
20
-158.920395
30
1008.176941
70
192
0
VERTEX
8
OBJECT020
10
-172.551163
20
-161.609756
30
1008.000000
70
192
0
VERTEX
8
OBJECT020
10
-166.089493
20
-169.016525
30
1008.000000
70
192
0
VERTEX
8
OBJECT020
10
-160.581223
20
-179.400970
30
1008.000000
70
192
0
VERTEX
8
OBJECT020
10
-155.560745
20
-187.936081
30
1008.000000
70
192
0
VERTEX
8
OBJECT020
10
-151.280869
20
-197.085022
30
1008.000000
70
192
0
VERTEX
8
OBJECT020
10
-145.527222
20
-204.333588
30
1008.000000
70
192
0
VERTEX
8
OBJECT020
10
-192.509705
20
-149.238434
30
1007.947571
70
192
0
VERTEX
8
OBJECT020
10
-185.115677
20
-151.696487
30
1006.147522
70
192
0
VERTEX
8
OBJECT020
10
-179.217972
20
-158.153503
30
1008.079224
70
192
0
VERTEX
8
OBJECT020
10
-172.101746
20
-160.887024
30
1008.000000
70
192
0
VERTEX
8
OBJECT020
10
-165.618454
20
-168.146149
30
1008.000000
70
192
0
VERTEX
8
OBJECT020
10
-160.058319
20
-178.369354
30
1008.000000
70
192
0
VERTEX
8
OBJECT020
10
-154.996368
20
-186.834885
30
1008.000000
70
192
0
VERTEX
8
OBJECT020
10
-150.701752
20
-196.076111
30
1008.000000
70
192
0
VERTEX
8
OBJECT020
10
-145.043915
20
-203.397858
30
1008.000000
70
192
0
VERTEX
8
OBJECT020
10
-192.084549
20
-148.653336
30
1008.000000
70
192
0
VERTEX
8
OBJECT020
10
-184.760559
20
-151.381668
30
1006.391968
70
192
0
VERTEX
8
OBJECT020
10
-178.760040
20
-157.434250
30
1008.000000
70
192
0
VERTEX
8
OBJECT020
10
-171.657898
20
-160.212250
30
1008.000000
70
192
0
VERTEX
8
OBJECT020
10
-165.156235
20
-167.326401
30
1008.000000
70
192
0
VERTEX
8
OBJECT020
10
-159.547775
20
-177.381958
30
1008.000000
70
192
0
VERTEX
8
OBJECT020
10
-154.443954
20
-185.758881
30
1008.000000
70
192
0
VERTEX
8
OBJECT020
10
-150.127136
20
-195.064346
30
1008.000000
70
192
0
VERTEX
8
OBJECT020
10
-144.561554
20
-202.465515
30
1008.000000
70
192
0
VERTEX
8
OBJECT020
10
-191.660965
20
-148.119064
30
1008.000000
70
192
0
VERTEX
8
OBJECT020
10
-184.418762
20
-151.223053
30
1006.680908
70
192
0
VERTEX
8
OBJECT020
10
-178.310822
20
-156.766754
30
1008.000000
70
192
0
VERTEX
8
OBJECT020
10
-171.218857
20
-159.582321
30
1008.000000
70
192
0
VERTEX
8
OBJECT020
10
-164.701874
20
-166.554184
30
1008.000000
70
192
0
VERTEX
8
OBJECT020
10
-159.048691
20
-176.436798
30
1008.000000
70
192
0
VERTEX
8
OBJECT020
10
-153.904755
20
-184.718735
30
1008.000000
70
192
0
VERTEX
8
OBJECT020
10
-149.559189
20
-194.052216
30
1008.000000
70
192
0
VERTEX
8
OBJECT020
10
-144.075134
20
-201.541473
30
1008.000000
70
192
0
VERTEX
8
OBJECT020
10
-191.245163
20
-147.638992
30
1008.000000
70
192
0
VERTEX
8
OBJECT020
10
-184.081696
20
-150.950821
30
1007.014221
70
192
0
VERTEX
8
OBJECT020
10
-177.865601
20
-156.137848
30
1008.000000
70
192
0
VERTEX
8
OBJECT020
10
-170.784149
20
-158.994461
30
1008.000000
70
192
0
VERTEX
8
OBJECT020
10
-164.254654
20
-165.826630
30
1008.000000
70
192
0
VERTEX
8
OBJECT020
10
-158.560135
20
-175.532089
30
1008.000000
70
192
0
VERTEX
8
OBJECT020
10
-153.377853
20
-183.713272
30
1008.000000
70
192
0
VERTEX
8
OBJECT020
10
-149.002747
20
-193.063919
30
1008.000000
70
192
0
VERTEX
8
OBJECT020
10
-143.587402
20
-200.625656
30
1008.000000
70
192
0
VERTEX
8
OBJECT020
10
0
20
0
30
0
70
128
71
1
72
10
73
11
0
VERTEX
8
OBJECT020
10
0
20
0
30
0
70
128
71
1
72
11
73
2
0
VERTEX
8
OBJECT020
10
0
20
0
30
0
70
128
71
2
72
11
73
12
0
VERTEX
8
OBJECT020
10
0
20
0
30
0
70
128
71
2
72
12
73
3
0
VERTEX
8
OBJECT020
10
0
20
0
30
0
70
128
71
3
72
12
73
13
0
VERTEX
8
OBJECT020
10
0
20
0
30
0
70
128
71
3
72
13
73
4
0
VERTEX
8
OBJECT020
10
0
20
0
30
0
70
128
71
4
72
13
73
14
0
VERTEX
8
OBJECT020
10
0
20
0
30
0
70
128
71
4
72
14
73
5
0
VERTEX
8
OBJECT020
10
0
20
0
30
0
70
128
71
5
72
14
73
15
0
VERTEX
8
OBJECT020
10
0
20
0
30
0
70
128
71
5
72
15
73
6
0
VERTEX
8
OBJECT020
10
0
20
0
30
0
70
128
71
6
72
15
73
16
0
VERTEX
8
OBJECT020
10
0
20
0
30
0
70
128
71
6
72
16
73
7
0
VERTEX
8
OBJECT020
10
0
20
0
30
0
70
128
71
7
72
16
73
17
0
VERTEX
8
OBJECT020
10
0
20
0
30
0
70
128
71
7
72
17
73
8
0
VERTEX
8
OBJECT020
10
0
20
0
30
0
70
128
71
8
72
17
73
18
0
VERTEX
8
OBJECT020
10
0
20
0
30
0
70
128
71
8
72
18
73
9
0
VERTEX
8
OBJECT020
10
0
20
0
30
0
70
128
71
10
72
19
73
20
0
VERTEX
8
OBJECT020
10
0
20
0
30
0
70
128
71
10
72
20
73
11
0
VERTEX
8
OBJECT020
10
0
20
0
30
0
70
128
71
11
72
20
73
21
0
VERTEX
8
OBJECT020
10
0
20
0
30
0
70
128
71
11
72
21
73
12
0
VERTEX
8
OBJECT020
10
0
20
0
30
0
70
128
71
12
72
21
73
22
0
VERTEX
8
OBJECT020
10
0
20
0
30
0
70
128
71
12
72
22
73
13
0
VERTEX
8
OBJECT020
10
0
20
0
30
0
70
128
71
13
72
22
73
23
0
VERTEX
8
OBJECT020
10
0
20
0
30
0
70
128
71
13
72
23
73
14
0
VERTEX
8
OBJECT020
10
0
20
0
30
0
70
128
71
14
72
23
73
24
0
VERTEX
8
OBJECT020
10
0
20
0
30
0
70
128
71
14
72
24
73
15
0
VERTEX
8
OBJECT020
10
0
20
0
30
0
70
128
71
15
72
24
73
25
0
VERTEX
8
OBJECT020
10
0
20
0
30
0
70
128
71
15
72
25
73
16
0
VERTEX
8
OBJECT020
10
0
20
0
30
0
70
128
71
16
72
25
73
26
0
VERTEX
8
OBJECT020
10
0
20
0
30
0
70
128
71
16
72
26
73
17
0
VERTEX
8
OBJECT020
10
0
20
0
30
0
70
128
71
17
72
26
73
27
0
VERTEX
8
OBJECT020
10
0
20
0
30
0
70
128
71
17
72
27
73
18
0
VERTEX
8
OBJECT020
10
0
20
0
30
0
70
128
71
19
72
28
73
29
0
VERTEX
8
OBJECT020
10
0
20
0
30
0
70
128
71
19
72
29
73
20
0
VERTEX
8
OBJECT020
10
0
20
0
30
0
70
128
71
20
72
29
73
30
0
VERTEX
8
OBJECT020
10
0
20
0
30
0
70
128
71
20
72
30
73
21
0
VERTEX
8
OBJECT020
10
0
20
0
30
0
70
128
71
21
72
30
73
31
0
VERTEX
8
OBJECT020
10
0
20
0
30
0
70
128
71
21
72
31
73
22
0
VERTEX
8
OBJECT020
10
0
20
0
30
0
70
128
71
22
72
31
73
32
0
VERTEX
8
OBJECT020
10
0
20
0
30
0
70
128
71
22
72
32
73
23
0
VERTEX
8
OBJECT020
10
0
20
0
30
0
70
128
71
23
72
32
73
33
0
VERTEX
8
OBJECT020
10
0
20
0
30
0
70
128
71
23
72
33
73
24
0
VERTEX
8
OBJECT020
10
0
20
0
30
0
70
128
71
24
72
33
73
34
0
VERTEX
8
OBJECT020
10
0
20
0
30
0
70
128
71
24
72
34
73
25
0
VERTEX
8
OBJECT020
10
0
20
0
30
0
70
128
71
25
72
34
73
35
0
VERTEX
8
OBJECT020
10
0
20
0
30
0
70
128
71
25
72
35
73
26
0
VERTEX
8
OBJECT020
10
0
20
0
30
0
70
128
71
26
72
35
73
36
0
VERTEX
8
OBJECT020
10
0
20
0
30
0
70
128
71
26
72
36
73
27
0
VERTEX
8
OBJECT020
10
0
20
0
30
0
70
128
71
28
72
37
73
38
0
VERTEX
8
OBJECT020
10
0
20
0
30
0
70
128
71
28
72
38
73
29
0
VERTEX
8
OBJECT020
10
0
20
0
30
0
70
128
71
29
72
38
73
39
0
VERTEX
8
OBJECT020
10
0
20
0
30
0
70
128
71
29
72
39
73
30
0
VERTEX
8
OBJECT020
10
0
20
0
30
0
70
128
71
30
72
39
73
40
0
VERTEX
8
OBJECT020
10
0
20
0
30
0
70
128
71
30
72
40
73
31
0
VERTEX
8
OBJECT020
10
0
20
0
30
0
70
128
71
31
72
40
73
41
0
VERTEX
8
OBJECT020
10
0
20
0
30
0
70
128
71
31
72
41
73
32
0
VERTEX
8
OBJECT020
10
0
20
0
30
0
70
128
71
32
72
41
73
42
0
VERTEX
8
OBJECT020
10
0
20
0
30
0
70
128
71
32
72
42
73
33
0
VERTEX
8
OBJECT020
10
0
20
0
30
0
70
128
71
33
72
42
73
43
0
VERTEX
8
OBJECT020
10
0
20
0
30
0
70
128
71
33
72
43
73
34
0
VERTEX
8
OBJECT020
10
0
20
0
30
0
70
128
71
34
72
43
73
44
0
VERTEX
8
OBJECT020
10
0
20
0
30
0
70
128
71
34
72
44
73
35
0
VERTEX
8
OBJECT020
10
0
20
0
30
0
70
128
71
35
72
44
73
45
0
VERTEX
8
OBJECT020
10
0
20
0
30
0
70
128
71
35
72
45
73
36
0
VERTEX
8
OBJECT020
10
0
20
0
30
0
70
128
71
37
72
46
73
47
0
VERTEX
8
OBJECT020
10
0
20
0
30
0
70
128
71
37
72
47
73
38
0
VERTEX
8
OBJECT020
10
0
20
0
30
0
70
128
71
38
72
47
73
48
0
VERTEX
8
OBJECT020
10
0
20
0
30
0
70
128
71
38
72
48
73
39
0
VERTEX
8
OBJECT020
10
0
20
0
30
0
70
128
71
39
72
48
73
49
0
VERTEX
8
OBJECT020
10
0
20
0
30
0
70
128
71
39
72
49
73
40
0
VERTEX
8
OBJECT020
10
0
20
0
30
0
70
128
71
40
72
49
73
50
0
VERTEX
8
OBJECT020
10
0
20
0
30
0
70
128
71
40
72
50
73
41
0
VERTEX
8
OBJECT020
10
0
20
0
30
0
70
128
71
41
72
50
73
51
0
VERTEX
8
OBJECT020
10
0
20
0
30
0
70
128
71
41
72
51
73
42
0
VERTEX
8
OBJECT020
10
0
20
0
30
0
70
128
71
42
72
51
73
52
0
VERTEX
8
OBJECT020
10
0
20
0
30
0
70
128
71
42
72
52
73
43
0
VERTEX
8
OBJECT020
10
0
20
0
30
0
70
128
71
43
72
52
73
53
0
VERTEX
8
OBJECT020
10
0
20
0
30
0
70
128
71
43
72
53
73
44
0
VERTEX
8
OBJECT020
10
0
20
0
30
0
70
128
71
44
72
53
73
54
0
VERTEX
8
OBJECT020
10
0
20
0
30
0
70
128
71
44
72
54
73
45
0
VERTEX
8
OBJECT020
10
0
20
0
30
0
70
128
71
46
72
55
73
56
0
VERTEX
8
OBJECT020
10
0
20
0
30
0
70
128
71
46
72
56
73
47
0
VERTEX
8
OBJECT020
10
0
20
0
30
0
70
128
71
47
72
56
73
57
0
VERTEX
8
OBJECT020
10
0
20
0
30
0
70
128
71
47
72
57
73
48
0
VERTEX
8
OBJECT020
10
0
20
0
30
0
70
128
71
48
72
57
73
58
0
VERTEX
8
OBJECT020
10
0
20
0
30
0
70
128
71
48
72
58
73
49
0
VERTEX
8
OBJECT020
10
0
20
0
30
0
70
128
71
49
72
58
73
59
0
VERTEX
8
OBJECT020
10
0
20
0
30
0
70
128
71
49
72
59
73
50
0
VERTEX
8
OBJECT020
10
0
20
0
30
0
70
128
71
50
72
59
73
60
0
VERTEX
8
OBJECT020
10
0
20
0
30
0
70
128
71
50
72
60
73
51
0
VERTEX
8
OBJECT020
10
0
20
0
30
0
70
128
71
51
72
60
73
61
0
VERTEX
8
OBJECT020
10
0
20
0
30
0
70
128
71
51
72
61
73
52
0
VERTEX
8
OBJECT020
10
0
20
0
30
0
70
128
71
52
72
61
73
62
0
VERTEX
8
OBJECT020
10
0
20
0
30
0
70
128
71
52
72
62
73
53
0
VERTEX
8
OBJECT020
10
0
20
0
30
0
70
128
71
53
72
62
73
63
0
VERTEX
8
OBJECT020
10
0
20
0
30
0
70
128
71
53
72
63
73
54
0
VERTEX
8
OBJECT020
10
0
20
0
30
0
70
128
71
55
72
64
73
65
0
VERTEX
8
OBJECT020
10
0
20
0
30
0
70
128
71
55
72
65
73
56
0
VERTEX
8
OBJECT020
10
0
20
0
30
0
70
128
71
56
72
65
73
66
0
VERTEX
8
OBJECT020
10
0
20
0
30
0
70
128
71
56
72
66
73
57
0
VERTEX
8
OBJECT020
10
0
20
0
30
0
70
128
71
57
72
66
73
67
0
VERTEX
8
OBJECT020
10
0
20
0
30
0
70
128
71
57
72
67
73
58
0
VERTEX
8
OBJECT020
10
0
20
0
30
0
70
128
71
58
72
67
73
68
0
VERTEX
8
OBJECT020
10
0
20
0
30
0
70
128
71
58
72
68
73
59
0
VERTEX
8
OBJECT020
10
0
20
0
30
0
70
128
71
59
72
68
73
69
0
VERTEX
8
OBJECT020
10
0
20
0
30
0
70
128
71
59
72
69
73
60
0
VERTEX
8
OBJECT020
10
0
20
0
30
0
70
128
71
60
72
69
73
70
0
VERTEX
8
OBJECT020
10
0
20
0
30
0
70
128
71
60
72
70
73
61
0
VERTEX
8
OBJECT020
10
0
20
0
30
0
70
128
71
61
72
70
73
71
0
VERTEX
8
OBJECT020
10
0
20
0
30
0
70
128
71
61
72
71
73
62
0
VERTEX
8
OBJECT020
10
0
20
0
30
0
70
128
71
62
72
71
73
72
0
VERTEX
8
OBJECT020
10
0
20
0
30
0
70
128
71
62
72
72
73
63
0
VERTEX
8
OBJECT020
10
0
20
0
30
0
70
128
71
64
72
73
73
74
0
VERTEX
8
OBJECT020
10
0
20
0
30
0
70
128
71
64
72
74
73
65
0
VERTEX
8
OBJECT020
10
0
20
0
30
0
70
128
71
65
72
74
73
75
0
VERTEX
8
OBJECT020
10
0
20
0
30
0
70
128
71
65
72
75
73
66
0
VERTEX
8
OBJECT020
10
0
20
0
30
0
70
128
71
66
72
75
73
76
0
VERTEX
8
OBJECT020
10
0
20
0
30
0
70
128
71
66
72
76
73
67
0
VERTEX
8
OBJECT020
10
0
20
0
30
0
70
128
71
67
72
76
73
77
0
VERTEX
8
OBJECT020
10
0
20
0
30
0
70
128
71
67
72
77
73
68
0
VERTEX
8
OBJECT020
10
0
20
0
30
0
70
128
71
68
72
77
73
78
0
VERTEX
8
OBJECT020
10
0
20
0
30
0
70
128
71
68
72
78
73
69
0
VERTEX
8
OBJECT020
10
0
20
0
30
0
70
128
71
69
72
78
73
79
0
VERTEX
8
OBJECT020
10
0
20
0
30
0
70
128
71
69
72
79
73
70
0
VERTEX
8
OBJECT020
10
0
20
0
30
0
70
128
71
70
72
79
73
80
0
VERTEX
8
OBJECT020
10
0
20
0
30
0
70
128
71
70
72
80
73
71
0
VERTEX
8
OBJECT020
10
0
20
0
30
0
70
128
71
71
72
80
73
81
0
VERTEX
8
OBJECT020
10
0
20
0
30
0
70
128
71
71
72
81
73
72
0
SEQEND
8
OBJECT020
0
POLYLINE
8
OBJECT020
66
1
70
64
71
81
72
128
62
50
0
VERTEX
8
OBJECT020
10
-211.092102
20
-173.644577
30
896.000000
70
192
0
VERTEX
8
OBJECT020
10
-211.092102
20
-173.644577
30
910.000000
70
192
0
VERTEX
8
OBJECT020
10
-210.165802
20
-173.644577
30
924.000000
70
192
0
VERTEX
8
OBJECT020
10
-208.436111
20
-173.644577
30
938.000000
70
192
0
VERTEX
8
OBJECT020
10
-204.437393
20
-173.644577
30
952.000000
70
192
0
VERTEX
8
OBJECT020
10
-201.062927
20
-173.644577
30
966.000000
70
192
0
VERTEX
8
OBJECT020
10
-198.335266
20
-167.789200
30
980.000000
70
192
0
VERTEX
8
OBJECT020
10
-196.108307
20
-154.726303
30
991.027588
70
192
0
VERTEX
8
OBJECT020
10
-194.859680
20
-153.234161
30
1007.391968
70
192
0
VERTEX
8
OBJECT020
10
-210.614944
20
-172.765762
30
896.000000
70
192
0
VERTEX
8
OBJECT020
10
-210.614944
20
-172.765762
30
910.000000
70
192
0
VERTEX
8
OBJECT020
10
-209.674545
20
-172.765762
30
924.000000
70
192
0
VERTEX
8
OBJECT020
10
-207.917343
20
-172.765762
30
938.000000
70
192
0
VERTEX
8
OBJECT020
10
-203.841141
20
-172.765762
30
952.000000
70
192
0
VERTEX
8
OBJECT020
10
-200.471161
20
-172.765762
30
966.000000
70
192
0
VERTEX
8
OBJECT020
10
-197.744690
20
-166.433502
30
980.000000
70
192
0
VERTEX
8
OBJECT020
10
-195.562241
20
-153.843582
30
991.049805
70
192
0
VERTEX
8
OBJECT020
10
-194.322327
20
-152.243088
30
1007.414246
70
192
0
VERTEX
8
OBJECT020
10
-210.137787
20
-171.886932
30
896.000000
70
192
0
VERTEX
8
OBJECT020
10
-210.137787
20
-171.886932
30
910.000000
70
192
0
VERTEX
8
OBJECT020
10
-209.184509
20
-171.886932
30
924.000000
70
192
0
VERTEX
8
OBJECT020
10
-207.401016
20
-171.886932
30
938.000000
70
192
0
VERTEX
8
OBJECT020
10
-203.251312
20
-171.886932
30
952.000000
70
192
0
VERTEX
8
OBJECT020
10
-199.885651
20
-171.886932
30
966.000000
70
192
0
VERTEX
8
OBJECT020
10
-197.168152
20
-165.099823
30
980.000000
70
192
0
VERTEX
8
OBJECT020
10
-194.988739
20
-153.078522
30
991.116455
70
192
0
VERTEX
8
OBJECT020
10
-193.825439
20
-151.358383
30
1007.480896
70
192
0
VERTEX
8
OBJECT020
10
-209.660629
20
-171.008118
30
896.000000
70
192
0
VERTEX
8
OBJECT020
10
-209.660629
20
-171.008118
30
910.000000
70
192
0
VERTEX
8
OBJECT020
10
-208.695648
20
-171.008118
30
924.000000
70
192
0
VERTEX
8
OBJECT020
10
-206.887115
20
-171.008118
30
938.000000
70
192
0
VERTEX
8
OBJECT020
10
-202.667801
20
-171.008118
30
952.000000
70
192
0
VERTEX
8
OBJECT020
10
-199.306458
20
-171.008118
30
966.000000
70
192
0
VERTEX
8
OBJECT020
10
-196.603271
20
-163.755585
30
980.000000
70
192
0
VERTEX
8
OBJECT020
10
-194.428375
20
-152.403198
30
991.227539
70
192
0
VERTEX
8
OBJECT020
10
-193.361313
20
-150.568512
30
1007.591980
70
192
0
VERTEX
8
OBJECT020
10
-209.183472
20
-170.129303
30
896.000000
70
192
0
VERTEX
8
OBJECT020
10
-209.183472
20
-170.129303
30
910.000000
70
192
0
VERTEX
8
OBJECT020
10
-208.201599
20
-170.129303
30
924.000000
70
192
0
VERTEX
8
OBJECT020
10
-206.375656
20
-170.129303
30
938.000000
70
192
0
VERTEX
8
OBJECT020
10
-202.090546
20
-170.129303
30
952.000000
70
192
0
VERTEX
8
OBJECT020
10
-198.733536
20
-170.129303
30
966.000000
70
192
0
VERTEX
8
OBJECT020
10
-196.059845
20
-162.618256
30
980.000000
70
192
0
VERTEX
8
OBJECT020
10
-193.876404
20
-151.809494
30
991.383118
70
192
0
VERTEX
8
OBJECT020
10
-192.924210
20
-149.864304
30
1007.747559
70
192
0
VERTEX
8
OBJECT020
10
-208.706299
20
-169.250488
30
896.000000
70
192
0
VERTEX
8
OBJECT020
10
-208.706299
20
-169.250488
30
910.000000
70
192
0
VERTEX
8
OBJECT020
10
-207.704926
20
-169.250488
30
924.000000
70
192
0
VERTEX
8
OBJECT020
10
-205.866577
20
-169.250488
30
938.000000
70
192
0
VERTEX
8
OBJECT020
10
-201.519592
20
-169.250488
30
952.000000
70
192
0
VERTEX
8
OBJECT020
10
-198.166855
20
-169.250488
30
966.000000
70
192
0
VERTEX
8
OBJECT020
10
-195.527908
20
-161.539749
30
980.000000
70
192
0
VERTEX
8
OBJECT020
10
-193.329269
20
-151.279922
30
991.583130
70
192
0
VERTEX
8
OBJECT020
10
-192.509705
20
-149.238434
30
1007.947571
70
192
0
VERTEX
8
OBJECT020
10
-208.229141
20
-168.371674
30
896.000000
70
192
0
VERTEX
8
OBJECT020
10
-208.229141
20
-168.371674
30
910.000000
70
192
0
VERTEX
8
OBJECT020
10
-207.205002
20
-168.371674
30
924.000000
70
192
0
VERTEX
8
OBJECT020
10
-205.359955
20
-168.371674
30
938.000000
70
192
0
VERTEX
8
OBJECT020
10
-200.954880
20
-168.371674
30
952.000000
70
192
0
VERTEX
8
OBJECT020
10
-197.606323
20
-168.371674
30
966.000000
70
192
0
VERTEX
8
OBJECT020
10
-194.962326
20
-160.511414
30
980.000000
70
192
0
VERTEX
8
OBJECT020
10
-192.785187
20
-150.798676
30
991.827576
70
192
0
VERTEX
8
OBJECT020
10
-192.084549
20
-148.653336
30
1008.000000
70
192
0
VERTEX
8
OBJECT020
10
-207.751984
20
-167.492844
30
896.000000
70
192
0
VERTEX
8
OBJECT020
10
-207.749176
20
-167.492844
30
910.000000
70
192
0
VERTEX
8
OBJECT020
10
-206.702652
20
-167.492844
30
924.000000
70
192
0
VERTEX
8
OBJECT020
10
-204.855698
20
-167.492844
30
938.000000
70
192
0
VERTEX
8
OBJECT020
10
-200.396378
20
-167.492844
30
952.000000
70
192
0
VERTEX
8
OBJECT020
10
-197.052078
20
-167.492844
30
966.000000
70
192
0
VERTEX
8
OBJECT020
10
-194.380249
20
-159.596588
30
980.000000
70
192
0
VERTEX
8
OBJECT020
10
-192.248825
20
-150.165787
30
992.116455
70
192
0
VERTEX
8
OBJECT020
10
-191.660965
20
-148.119064
30
1008.000000
70
192
0
VERTEX
8
OBJECT020
10
-207.274826
20
-166.614029
30
896.000000
70
192
0
VERTEX
8
OBJECT020
10
-207.268692
20
-166.614029
30
910.000000
70
192
0
VERTEX
8
OBJECT020
10
-206.199982
20
-166.614029
30
924.000000
70
192
0
VERTEX
8
OBJECT020
10
-204.345322
20
-166.614029
30
938.000000
70
192
0
VERTEX
8
OBJECT020
10
-199.844131
20
-166.614029
30
952.000000
70
192
0
VERTEX
8
OBJECT020
10
-196.503922
20
-166.614029
30
966.000000
70
192
0
VERTEX
8
OBJECT020
10
-193.821106
20
-158.783234
30
980.000000
70
192
0
VERTEX
8
OBJECT020
10
-191.719742
20
-149.564545
30
992.449768
70
192
0
VERTEX
8
OBJECT020
10
-191.245163
20
-147.638992
30
1008.000000
70
192
0
VERTEX
8
OBJECT020
10
0
20
0
30
0
70
128
71
1
72
10
73
11
0
VERTEX
8
OBJECT020
10
0
20
0
30
0
70
128
71
1
72
11
73
2
0
VERTEX
8
OBJECT020
10
0
20
0
30
0
70
128
71
2
72
11
73
12
0
VERTEX
8
OBJECT020
10
0
20
0
30
0
70
128
71
2
72
12
73
3
0
VERTEX
8
OBJECT020
10
0
20
0
30
0
70
128
71
3
72
12
73
13
0
VERTEX
8
OBJECT020
10
0
20
0
30
0
70
128
71
3
72
13
73
4
0
VERTEX
8
OBJECT020
10
0
20
0
30
0
70
128
71
4
72
13
73
14
0
VERTEX
8
OBJECT020
10
0
20
0
30
0
70
128
71
4
72
14
73
5
0
VERTEX
8
OBJECT020
10
0
20
0
30
0
70
128
71
5
72
14
73
15
0
VERTEX
8
OBJECT020
10
0
20
0
30
0
70
128
71
5
72
15
73
6
0
VERTEX
8
OBJECT020
10
0
20
0
30
0
70
128
71
6
72
15
73
16
0
VERTEX
8
OBJECT020
10
0
20
0
30
0
70
128
71
6
72
16
73
7
0
VERTEX
8
OBJECT020
10
0
20
0
30
0
70
128
71
7
72
16
73
17
0
VERTEX
8
OBJECT020
10
0
20
0
30
0
70
128
71
7
72
17
73
8
0
VERTEX
8
OBJECT020
10
0
20
0
30
0
70
128
71
8
72
17
73
18
0
VERTEX
8
OBJECT020
10
0
20
0
30
0
70
128
71
8
72
18
73
9
0
VERTEX
8
OBJECT020
10
0
20
0
30
0
70
128
71
10
72
19
73
20
0
VERTEX
8
OBJECT020
10
0
20
0
30
0
70
128
71
10
72
20
73
11
0
VERTEX
8
OBJECT020
10
0
20
0
30
0
70
128
71
11
72
20
73
21
0
VERTEX
8
OBJECT020
10
0
20
0
30
0
70
128
71
11
72
21
73
12
0
VERTEX
8
OBJECT020
10
0
20
0
30
0
70
128
71
12
72
21
73
22
0
VERTEX
8
OBJECT020
10
0
20
0
30
0
70
128
71
12
72
22
73
13
0
VERTEX
8
OBJECT020
10
0
20
0
30
0
70
128
71
13
72
22
73
23
0
VERTEX
8
OBJECT020
10
0
20
0
30
0
70
128
71
13
72
23
73
14
0
VERTEX
8
OBJECT020
10
0
20
0
30
0
70
128
71
14
72
23
73
24
0
VERTEX
8
OBJECT020
10
0
20
0
30
0
70
128
71
14
72
24
73
15
0
VERTEX
8
OBJECT020
10
0
20
0
30
0
70
128
71
15
72
24
73
25
0
VERTEX
8
OBJECT020
10
0
20
0
30
0
70
128
71
15
72
25
73
16
0
VERTEX
8
OBJECT020
10
0
20
0
30
0
70
128
71
16
72
25
73
26
0
VERTEX
8
OBJECT020
10
0
20
0
30
0
70
128
71
16
72
26
73
17
0
VERTEX
8
OBJECT020
10
0
20
0
30
0
70
128
71
17
72
26
73
27
0
VERTEX
8
OBJECT020
10
0
20
0
30
0
70
128
71
17
72
27
73
18
0
VERTEX
8
OBJECT020
10
0
20
0
30
0
70
128
71
19
72
28
73
29
0
VERTEX
8
OBJECT020
10
0
20
0
30
0
70
128
71
19
72
29
73
20
0
VERTEX
8
OBJECT020
10
0
20
0
30
0
70
128
71
20
72
29
73
30
0
VERTEX
8
OBJECT020
10
0
20
0
30
0
70
128
71
20
72
30
73
21
0
VERTEX
8
OBJECT020
10
0
20
0
30
0
70
128
71
21
72
30
73
31
0
VERTEX
8
OBJECT020
10
0
20
0
30
0
70
128
71
21
72
31
73
22
0
VERTEX
8
OBJECT020
10
0
20
0
30
0
70
128
71
22
72
31
73
32
0
VERTEX
8
OBJECT020
10
0
20
0
30
0
70
128
71
22
72
32
73
23
0
VERTEX
8
OBJECT020
10
0
20
0
30
0
70
128
71
23
72
32
73
33
0
VERTEX
8
OBJECT020
10
0
20
0
30
0
70
128
71
23
72
33
73
24
0
VERTEX
8
OBJECT020
10
0
20
0
30
0
70
128
71
24
72
33
73
34
0
VERTEX
8
OBJECT020
10
0
20
0
30
0
70
128
71
24
72
34
73
25
0
VERTEX
8
OBJECT020
10
0
20
0
30
0
70
128
71
25
72
34
73
35
0
VERTEX
8
OBJECT020
10
0
20
0
30
0
70
128
71
25
72
35
73
26
0
VERTEX
8
OBJECT020
10
0
20
0
30
0
70
128
71
26
72
35
73
36
0
VERTEX
8
OBJECT020
10
0
20
0
30
0
70
128
71
26
72
36
73
27
0
VERTEX
8
OBJECT020
10
0
20
0
30
0
70
128
71
28
72
37
73
38
0
VERTEX
8
OBJECT020
10
0
20
0
30
0
70
128
71
28
72
38
73
29
0
VERTEX
8
OBJECT020
10
0
20
0
30
0
70
128
71
29
72
38
73
39
0
VERTEX
8
OBJECT020
10
0
20
0
30
0
70
128
71
29
72
39
73
30
0
VERTEX
8
OBJECT020
10
0
20
0
30
0
70
128
71
30
72
39
73
40
0
VERTEX
8
OBJECT020
10
0
20
0
30
0
70
128
71
30
72
40
73
31
0
VERTEX
8
OBJECT020
10
0
20
0
30
0
70
128
71
31
72
40
73
41
0
VERTEX
8
OBJECT020
10
0
20
0
30
0
70
128
71
31
72
41
73
32
0
VERTEX
8
OBJECT020
10
0
20
0
30
0
70
128
71
32
72
41
73
42
0
VERTEX
8
OBJECT020
10
0
20
0
30
0
70
128
71
32
72
42
73
33
0
VERTEX
8
OBJECT020
10
0
20
0
30
0
70
128
71
33
72
42
73
43
0
VERTEX
8
OBJECT020
10
0
20
0
30
0
70
128
71
33
72
43
73
34
0
VERTEX
8
OBJECT020
10
0
20
0
30
0
70
128
71
34
72
43
73
44
0
VERTEX
8
OBJECT020
10
0
20
0
30
0
70
128
71
34
72
44
73
35
0
VERTEX
8
OBJECT020
10
0
20
0
30
0
70
128
71
35
72
44
73
45
0
VERTEX
8
OBJECT020
10
0
20
0
30
0
70
128
71
35
72
45
73
36
0
VERTEX
8
OBJECT020
10
0
20
0
30
0
70
128
71
37
72
46
73
47
0
VERTEX
8
OBJECT020
10
0
20
0
30
0
70
128
71
37
72
47
73
38
0
VERTEX
8
OBJECT020
10
0
20
0
30
0
70
128
71
38
72
47
73
48
0
VERTEX
8
OBJECT020
10
0
20
0
30
0
70
128
71
38
72
48
73
39
0
VERTEX
8
OBJECT020
10
0
20
0
30
0
70
128
71
39
72
48
73
49
0
VERTEX
8
OBJECT020
10
0
20
0
30
0
70
128
71
39
72
49
73
40
0
VERTEX
8
OBJECT020
10
0
20
0
30
0
70
128
71
40
72
49
73
50
0
VERTEX
8
OBJECT020
10
0
20
0
30
0
70
128
71
40
72
50
73
41
0
VERTEX
8
OBJECT020
10
0
20
0
30
0
70
128
71
41
72
50
73
51
0
VERTEX
8
OBJECT020
10
0
20
0
30
0
70
128
71
41
72
51
73
42
0
VERTEX
8
OBJECT020
10
0
20
0
30
0
70
128
71
42
72
51
73
52
0
VERTEX
8
OBJECT020
10
0
20
0
30
0
70
128
71
42
72
52
73
43
0
VERTEX
8
OBJECT020
10
0
20
0
30
0
70
128
71
43
72
52
73
53
0
VERTEX
8
OBJECT020
10
0
20
0
30
0
70
128
71
43
72
53
73
44
0
VERTEX
8
OBJECT020
10
0
20
0
30
0
70
128
71
44
72
53
73
54
0
VERTEX
8
OBJECT020
10
0
20
0
30
0
70
128
71
44
72
54
73
45
0
VERTEX
8
OBJECT020
10
0
20
0
30
0
70
128
71
46
72
55
73
56
0
VERTEX
8
OBJECT020
10
0
20
0
30
0
70
128
71
46
72
56
73
47
0
VERTEX
8
OBJECT020
10
0
20
0
30
0
70
128
71
47
72
56
73
57
0
VERTEX
8
OBJECT020
10
0
20
0
30
0
70
128
71
47
72
57
73
48
0
VERTEX
8
OBJECT020
10
0
20
0
30
0
70
128
71
48
72
57
73
58
0
VERTEX
8
OBJECT020
10
0
20
0
30
0
70
128
71
48
72
58
73
49
0
VERTEX
8
OBJECT020
10
0
20
0
30
0
70
128
71
49
72
58
73
59
0
VERTEX
8
OBJECT020
10
0
20
0
30
0
70
128
71
49
72
59
73
50
0
VERTEX
8
OBJECT020
10
0
20
0
30
0
70
128
71
50
72
59
73
60
0
VERTEX
8
OBJECT020
10
0
20
0
30
0
70
128
71
50
72
60
73
51
0
VERTEX
8
OBJECT020
10
0
20
0
30
0
70
128
71
51
72
60
73
61
0
VERTEX
8
OBJECT020
10
0
20
0
30
0
70
128
71
51
72
61
73
52
0
VERTEX
8
OBJECT020
10
0
20
0
30
0
70
128
71
52
72
61
73
62
0
VERTEX
8
OBJECT020
10
0
20
0
30
0
70
128
71
52
72
62
73
53
0
VERTEX
8
OBJECT020
10
0
20
0
30
0
70
128
71
53
72
62
73
63
0
VERTEX
8
OBJECT020
10
0
20
0
30
0
70
128
71
53
72
63
73
54
0
VERTEX
8
OBJECT020
10
0
20
0
30
0
70
128
71
55
72
64
73
65
0
VERTEX
8
OBJECT020
10
0
20
0
30
0
70
128
71
55
72
65
73
56
0
VERTEX
8
OBJECT020
10
0
20
0
30
0
70
128
71
56
72
65
73
66
0
VERTEX
8
OBJECT020
10
0
20
0
30
0
70
128
71
56
72
66
73
57
0
VERTEX
8
OBJECT020
10
0
20
0
30
0
70
128
71
57
72
66
73
67
0
VERTEX
8
OBJECT020
10
0
20
0
30
0
70
128
71
57
72
67
73
58
0
VERTEX
8
OBJECT020
10
0
20
0
30
0
70
128
71
58
72
67
73
68
0
VERTEX
8
OBJECT020
10
0
20
0
30
0
70
128
71
58
72
68
73
59
0
VERTEX
8
OBJECT020
10
0
20
0
30
0
70
128
71
59
72
68
73
69
0
VERTEX
8
OBJECT020
10
0
20
0
30
0
70
128
71
59
72
69
73
60
0
VERTEX
8
OBJECT020
10
0
20
0
30
0
70
128
71
60
72
69
73
70
0
VERTEX
8
OBJECT020
10
0
20
0
30
0
70
128
71
60
72
70
73
61
0
VERTEX
8
OBJECT020
10
0
20
0
30
0
70
128
71
61
72
70
73
71
0
VERTEX
8
OBJECT020
10
0
20
0
30
0
70
128
71
61
72
71
73
62
0
VERTEX
8
OBJECT020
10
0
20
0
30
0
70
128
71
62
72
71
73
72
0
VERTEX
8
OBJECT020
10
0
20
0
30
0
70
128
71
62
72
72
73
63
0
VERTEX
8
OBJECT020
10
0
20
0
30
0
70
128
71
64
72
73
73
74
0
VERTEX
8
OBJECT020
10
0
20
0
30
0
70
128
71
64
72
74
73
65
0
VERTEX
8
OBJECT020
10
0
20
0
30
0
70
128
71
65
72
74
73
75
0
VERTEX
8
OBJECT020
10
0
20
0
30
0
70
128
71
65
72
75
73
66
0
VERTEX
8
OBJECT020
10
0
20
0
30
0
70
128
71
66
72
75
73
76
0
VERTEX
8
OBJECT020
10
0
20
0
30
0
70
128
71
66
72
76
73
67
0
VERTEX
8
OBJECT020
10
0
20
0
30
0
70
128
71
67
72
76
73
77
0
VERTEX
8
OBJECT020
10
0
20
0
30
0
70
128
71
67
72
77
73
68
0
VERTEX
8
OBJECT020
10
0
20
0
30
0
70
128
71
68
72
77
73
78
0
VERTEX
8
OBJECT020
10
0
20
0
30
0
70
128
71
68
72
78
73
69
0
VERTEX
8
OBJECT020
10
0
20
0
30
0
70
128
71
69
72
78
73
79
0
VERTEX
8
OBJECT020
10
0
20
0
30
0
70
128
71
69
72
79
73
70
0
VERTEX
8
OBJECT020
10
0
20
0
30
0
70
128
71
70
72
79
73
80
0
VERTEX
8
OBJECT020
10
0
20
0
30
0
70
128
71
70
72
80
73
71
0
VERTEX
8
OBJECT020
10
0
20
0
30
0
70
128
71
71
72
80
73
81
0
VERTEX
8
OBJECT020
10
0
20
0
30
0
70
128
71
71
72
81
73
72
0
SEQEND
8
OBJECT020
0
POLYLINE
8
OBJECT020
66
1
70
64
71
81
72
128
62
50
0
VERTEX
8
OBJECT020
10
-207.274826
20
-166.614029
30
896.000000
70
192
0
VERTEX
8
OBJECT020
10
-207.268692
20
-166.614029
30
910.000000
70
192
0
VERTEX
8
OBJECT020
10
-206.199982
20
-166.614029
30
924.000000
70
192
0
VERTEX
8
OBJECT020
10
-204.345322
20
-166.614029
30
938.000000
70
192
0
VERTEX
8
OBJECT020
10
-199.844131
20
-166.614029
30
952.000000
70
192
0
VERTEX
8
OBJECT020
10
-196.503922
20
-166.614029
30
966.000000
70
192
0
VERTEX
8
OBJECT020
10
-193.821106
20
-158.783234
30
980.000000
70
192
0
VERTEX
8
OBJECT020
10
-191.719742
20
-149.564545
30
992.449768
70
192
0
VERTEX
8
OBJECT020
10
-191.245163
20
-147.638992
30
1008.000000
70
192
0
VERTEX
8
OBJECT020
10
-199.365479
20
-170.908463
30
896.000000
70
192
0
VERTEX
8
OBJECT020
10
-199.334290
20
-170.908463
30
910.000000
70
192
0
VERTEX
8
OBJECT020
10
-198.275909
20
-170.908463
30
924.000000
70
192
0
VERTEX
8
OBJECT020
10
-196.477966
20
-170.908463
30
938.000000
70
192
0
VERTEX
8
OBJECT020
10
-192.275116
20
-170.908463
30
952.000000
70
192
0
VERTEX
8
OBJECT020
10
-188.932693
20
-170.218338
30
966.000000
70
192
0
VERTEX
8
OBJECT020
10
-186.325378
20
-163.029037
30
980.000000
70
192
0
VERTEX
8
OBJECT020
10
-184.505798
20
-150.938614
30
992.244934
70
192
0
VERTEX
8
OBJECT020
10
-184.081696
20
-150.950821
30
1007.014221
70
192
0
VERTEX
8
OBJECT020
10
-191.456116
20
-175.202881
30
896.000000
70
192
0
VERTEX
8
OBJECT020
10
-191.429718
20
-175.202881
30
910.000000
70
192
0
VERTEX
8
OBJECT020
10
-190.387070
20
-175.202881
30
924.000000
70
192
0
VERTEX
8
OBJECT020
10
-188.793961
20
-175.202881
30
938.000000
70
192
0
VERTEX
8
OBJECT020
10
-185.162445
20
-175.202881
30
952.000000
70
192
0
VERTEX
8
OBJECT020
10
-181.839233
20
-174.321304
30
966.000000
70
192
0
VERTEX
8
OBJECT020
10
-179.177261
20
-168.145157
30
980.000000
70
192
0
VERTEX
8
OBJECT020
10
-177.685822
20
-157.096207
30
995.803162
70
192
0
VERTEX
8
OBJECT020
10
-177.865601
20
-156.137848
30
1008.000000
70
192
0
VERTEX
8
OBJECT020
10
-183.546768
20
-179.497314
30
896.000000
70
192
0
VERTEX
8
OBJECT020
10
-183.546768
20
-179.497314
30
910.000000
70
192
0
VERTEX
8
OBJECT020
10
-182.590332
20
-179.497314
30
924.000000
70
192
0
VERTEX
8
OBJECT020
10
-181.297455
20
-179.497314
30
938.000000
70
192
0
VERTEX
8
OBJECT020
10
-178.477966
20
-179.497314
30
952.000000
70
192
0
VERTEX
8
OBJECT020
10
-175.307083
20
-179.497314
30
966.000000
70
192
0
VERTEX
8
OBJECT020
10
-172.475418
20
-173.017334
30
980.000000
70
192
0
VERTEX
8
OBJECT020
10
-170.661453
20
-160.905075
30
995.777771
70
192
0
VERTEX
8
OBJECT020
10
-170.784149
20
-158.994461
30
1008.000000
70
192
0
VERTEX
8
OBJECT020
10
-175.637421
20
-183.791748
30
896.000000
70
192
0
VERTEX
8
OBJECT020
10
-175.637421
20
-183.791748
30
910.000000
70
192
0
VERTEX
8
OBJECT020
10
-174.888687
20
-183.791748
30
924.000000
70
192
0
VERTEX
8
OBJECT020
10
-173.984161
20
-183.791748
30
938.000000
70
192
0
VERTEX
8
OBJECT020
10
-172.189606
20
-183.791748
30
952.000000
70
192
0
VERTEX
8
OBJECT020
10
-169.074860
20
-183.791748
30
966.000000
70
192
0
VERTEX
8
OBJECT020
10
-166.302261
20
-178.658295
30
980.000000
70
192
0
VERTEX
8
OBJECT020
10
-164.269608
20
-167.896332
30
994.000000
70
192
0
VERTEX
8
OBJECT020
10
-164.254654
20
-165.826630
30
1008.000000
70
192
0
VERTEX
8
OBJECT020
10
-167.728058
20
-188.086182
30
896.000000
70
192
0
VERTEX
8
OBJECT020
10
-167.728058
20
-188.086182
30
910.000000
70
192
0
VERTEX
8
OBJECT020
10
-167.281219
20
-188.086182
30
924.000000
70
192
0
VERTEX
8
OBJECT020
10
-166.470581
20
-188.086182
30
938.000000
70
192
0
VERTEX
8
OBJECT020
10
-165.520737
20
-188.086182
30
952.000000
70
192
0
VERTEX
8
OBJECT020
10
-163.218750
20
-188.086182
30
966.000000
70
192
0
VERTEX
8
OBJECT020
10
-160.960876
20
-186.642960
30
980.000000
70
192
0
VERTEX
8
OBJECT020
10
-158.706680
20
-177.723312
30
994.000000
70
192
0
VERTEX
8
OBJECT020
10
-158.560135
20
-175.532089
30
1008.000000
70
192
0
VERTEX
8
OBJECT020
10
-159.818710
20
-192.380615
30
896.000000
70
192
0
VERTEX
8
OBJECT020
10
-159.818710
20
-192.380615
30
910.000000
70
192
0
VERTEX
8
OBJECT020
10
-159.691803
20
-192.380615
30
924.000000
70
192
0
VERTEX
8
OBJECT020
10
-158.958939
20
-192.380615
30
938.000000
70
192
0
VERTEX
8
OBJECT020
10
-158.380768
20
-192.380615
30
952.000000
70
192
0
VERTEX
8
OBJECT020
10
-157.529144
20
-192.380615
30
966.000000
70
192
0
VERTEX
8
OBJECT020
10
-155.673828
20
-192.057144
30
980.000000
70
192
0
VERTEX
8
OBJECT020
10
-153.699570
20
-186.353699
30
994.000000
70
192
0
VERTEX
8
OBJECT020
10
-153.377853
20
-183.713272
30
1008.000000
70
192
0
VERTEX
8
OBJECT020
10
-151.909363
20
-196.675034
30
896.000000
70
192
0
VERTEX
8
OBJECT020
10
-151.909363
20
-196.675034
30
910.000000
70
192
0
VERTEX
8
OBJECT020
10
-151.909363
20
-196.675034
30
924.000000
70
192
0
VERTEX
8
OBJECT020
10
-151.539688
20
-196.675034
30
938.000000
70
192
0
VERTEX
8
OBJECT020
10
-150.963303
20
-196.675034
30
952.000000
70
192
0
VERTEX
8
OBJECT020
10
-150.616089
20
-196.675034
30
966.000000
70
192
0
VERTEX
8
OBJECT020
10
-150.324173
20
-196.675034
30
980.000000
70
192
0
VERTEX
8
OBJECT020
10
-149.229706
20
-194.625992
30
994.000000
70
192
0
VERTEX
8
OBJECT020
10
-149.002747
20
-193.063919
30
1008.000000
70
192
0
VERTEX
8
OBJECT020
10
-144.000000
20
-200.969467
30
896.000000
70
192
0
VERTEX
8
OBJECT020
10
-144.000000
20
-200.969467
30
910.000000
70
192
0
VERTEX
8
OBJECT020
10
-144.000000
20
-200.969467
30
924.000000
70
192
0
VERTEX
8
OBJECT020
10
-144.000000
20
-200.969467
30
938.000000
70
192
0
VERTEX
8
OBJECT020
10
-143.622284
20
-200.969467
30
952.000000
70
192
0
VERTEX
8
OBJECT020
10
-143.291183
20
-200.969467
30
966.000000
70
192
0
VERTEX
8
OBJECT020
10
-143.173477
20
-200.969467
30
980.000000
70
192
0
VERTEX
8
OBJECT020
10
-143.284180
20
-200.969467
30
994.000000
70
192
0
VERTEX
8
OBJECT020
10
-143.587402
20
-200.625656
30
1008.000000
70
192
0
VERTEX
8
OBJECT020
10
0
20
0
30
0
70
128
71
1
72
10
73
11
0
VERTEX
8
OBJECT020
10
0
20
0
30
0
70
128
71
1
72
11
73
2
0
VERTEX
8
OBJECT020
10
0
20
0
30
0
70
128
71
2
72
11
73
12
0
VERTEX
8
OBJECT020
10
0
20
0
30
0
70
128
71
2
72
12
73
3
0
VERTEX
8
OBJECT020
10
0
20
0
30
0
70
128
71
3
72
12
73
13
0
VERTEX
8
OBJECT020
10
0
20
0
30
0
70
128
71
3
72
13
73
4
0
VERTEX
8
OBJECT020
10
0
20
0
30
0
70
128
71
4
72
13
73
14
0
VERTEX
8
OBJECT020
10
0
20
0
30
0
70
128
71
4
72
14
73
5
0
VERTEX
8
OBJECT020
10
0
20
0
30
0
70
128
71
5
72
14
73
15
0
VERTEX
8
OBJECT020
10
0
20
0
30
0
70
128
71
5
72
15
73
6
0
VERTEX
8
OBJECT020
10
0
20
0
30
0
70
128
71
6
72
15
73
16
0
VERTEX
8
OBJECT020
10
0
20
0
30
0
70
128
71
6
72
16
73
7
0
VERTEX
8
OBJECT020
10
0
20
0
30
0
70
128
71
7
72
16
73
17
0
VERTEX
8
OBJECT020
10
0
20
0
30
0
70
128
71
7
72
17
73
8
0
VERTEX
8
OBJECT020
10
0
20
0
30
0
70
128
71
8
72
17
73
18
0
VERTEX
8
OBJECT020
10
0
20
0
30
0
70
128
71
8
72
18
73
9
0
VERTEX
8
OBJECT020
10
0
20
0
30
0
70
128
71
10
72
19
73
20
0
VERTEX
8
OBJECT020
10
0
20
0
30
0
70
128
71
10
72
20
73
11
0
VERTEX
8
OBJECT020
10
0
20
0
30
0
70
128
71
11
72
20
73
21
0
VERTEX
8
OBJECT020
10
0
20
0
30
0
70
128
71
11
72
21
73
12
0
VERTEX
8
OBJECT020
10
0
20
0
30
0
70
128
71
12
72
21
73
22
0
VERTEX
8
OBJECT020
10
0
20
0
30
0
70
128
71
12
72
22
73
13
0
VERTEX
8
OBJECT020
10
0
20
0
30
0
70
128
71
13
72
22
73
23
0
VERTEX
8
OBJECT020
10
0
20
0
30
0
70
128
71
13
72
23
73
14
0
VERTEX
8
OBJECT020
10
0
20
0
30
0
70
128
71
14
72
23
73
24
0
VERTEX
8
OBJECT020
10
0
20
0
30
0
70
128
71
14
72
24
73
15
0
VERTEX
8
OBJECT020
10
0
20
0
30
0
70
128
71
15
72
24
73
25
0
VERTEX
8
OBJECT020
10
0
20
0
30
0
70
128
71
15
72
25
73
16
0
VERTEX
8
OBJECT020
10
0
20
0
30
0
70
128
71
16
72
25
73
26
0
VERTEX
8
OBJECT020
10
0
20
0
30
0
70
128
71
16
72
26
73
17
0
VERTEX
8
OBJECT020
10
0
20
0
30
0
70
128
71
17
72
26
73
27
0
VERTEX
8
OBJECT020
10
0
20
0
30
0
70
128
71
17
72
27
73
18
0
VERTEX
8
OBJECT020
10
0
20
0
30
0
70
128
71
19
72
28
73
29
0
VERTEX
8
OBJECT020
10
0
20
0
30
0
70
128
71
19
72
29
73
20
0
VERTEX
8
OBJECT020
10
0
20
0
30
0
70
128
71
20
72
29
73
30
0
VERTEX
8
OBJECT020
10
0
20
0
30
0
70
128
71
20
72
30
73
21
0
VERTEX
8
OBJECT020
10
0
20
0
30
0
70
128
71
21
72
30
73
31
0
VERTEX
8
OBJECT020
10
0
20
0
30
0
70
128
71
21
72
31
73
22
0
VERTEX
8
OBJECT020
10
0
20
0
30
0
70
128
71
22
72
31
73
32
0
VERTEX
8
OBJECT020
10
0
20
0
30
0
70
128
71
22
72
32
73
23
0
VERTEX
8
OBJECT020
10
0
20
0
30
0
70
128
71
23
72
32
73
33
0
VERTEX
8
OBJECT020
10
0
20
0
30
0
70
128
71
23
72
33
73
24
0
VERTEX
8
OBJECT020
10
0
20
0
30
0
70
128
71
24
72
33
73
34
0
VERTEX
8
OBJECT020
10
0
20
0
30
0
70
128
71
24
72
34
73
25
0
VERTEX
8
OBJECT020
10
0
20
0
30
0
70
128
71
25
72
34
73
35
0
VERTEX
8
OBJECT020
10
0
20
0
30
0
70
128
71
25
72
35
73
26
0
VERTEX
8
OBJECT020
10
0
20
0
30
0
70
128
71
26
72
35
73
36
0
VERTEX
8
OBJECT020
10
0
20
0
30
0
70
128
71
26
72
36
73
27
0
VERTEX
8
OBJECT020
10
0
20
0
30
0
70
128
71
28
72
37
73
38
0
VERTEX
8
OBJECT020
10
0
20
0
30
0
70
128
71
28
72
38
73
29
0
VERTEX
8
OBJECT020
10
0
20
0
30
0
70
128
71
29
72
38
73
39
0
VERTEX
8
OBJECT020
10
0
20
0
30
0
70
128
71
29
72
39
73
30
0
VERTEX
8
OBJECT020
10
0
20
0
30
0
70
128
71
30
72
39
73
40
0
VERTEX
8
OBJECT020
10
0
20
0
30
0
70
128
71
30
72
40
73
31
0
VERTEX
8
OBJECT020
10
0
20
0
30
0
70
128
71
31
72
40
73
41
0
VERTEX
8
OBJECT020
10
0
20
0
30
0
70
128
71
31
72
41
73
32
0
VERTEX
8
OBJECT020
10
0
20
0
30
0
70
128
71
32
72
41
73
42
0
VERTEX
8
OBJECT020
10
0
20
0
30
0
70
128
71
32
72
42
73
33
0
VERTEX
8
OBJECT020
10
0
20
0
30
0
70
128
71
33
72
42
73
43
0
VERTEX
8
OBJECT020
10
0
20
0
30
0
70
128
71
33
72
43
73
34
0
VERTEX
8
OBJECT020
10
0
20
0
30
0
70
128
71
34
72
43
73
44
0
VERTEX
8
OBJECT020
10
0
20
0
30
0
70
128
71
34
72
44
73
35
0
VERTEX
8
OBJECT020
10
0
20
0
30
0
70
128
71
35
72
44
73
45
0
VERTEX
8
OBJECT020
10
0
20
0
30
0
70
128
71
35
72
45
73
36
0
VERTEX
8
OBJECT020
10
0
20
0
30
0
70
128
71
37
72
46
73
47
0
VERTEX
8
OBJECT020
10
0
20
0
30
0
70
128
71
37
72
47
73
38
0
VERTEX
8
OBJECT020
10
0
20
0
30
0
70
128
71
38
72
47
73
48
0
VERTEX
8
OBJECT020
10
0
20
0
30
0
70
128
71
38
72
48
73
39
0
VERTEX
8
OBJECT020
10
0
20
0
30
0
70
128
71
39
72
48
73
49
0
VERTEX
8
OBJECT020
10
0
20
0
30
0
70
128
71
39
72
49
73
40
0
VERTEX
8
OBJECT020
10
0
20
0
30
0
70
128
71
40
72
49
73
50
0
VERTEX
8
OBJECT020
10
0
20
0
30
0
70
128
71
40
72
50
73
41
0
VERTEX
8
OBJECT020
10
0
20
0
30
0
70
128
71
41
72
50
73
51
0
VERTEX
8
OBJECT020
10
0
20
0
30
0
70
128
71
41
72
51
73
42
0
VERTEX
8
OBJECT020
10
0
20
0
30
0
70
128
71
42
72
51
73
52
0
VERTEX
8
OBJECT020
10
0
20
0
30
0
70
128
71
42
72
52
73
43
0
VERTEX
8
OBJECT020
10
0
20
0
30
0
70
128
71
43
72
52
73
53
0
VERTEX
8
OBJECT020
10
0
20
0
30
0
70
128
71
43
72
53
73
44
0
VERTEX
8
OBJECT020
10
0
20
0
30
0
70
128
71
44
72
53
73
54
0
VERTEX
8
OBJECT020
10
0
20
0
30
0
70
128
71
44
72
54
73
45
0
VERTEX
8
OBJECT020
10
0
20
0
30
0
70
128
71
46
72
55
73
56
0
VERTEX
8
OBJECT020
10
0
20
0
30
0
70
128
71
46
72
56
73
47
0
VERTEX
8
OBJECT020
10
0
20
0
30
0
70
128
71
47
72
56
73
57
0
VERTEX
8
OBJECT020
10
0
20
0
30
0
70
128
71
47
72
57
73
48
0
VERTEX
8
OBJECT020
10
0
20
0
30
0
70
128
71
48
72
57
73
58
0
VERTEX
8
OBJECT020
10
0
20
0
30
0
70
128
71
48
72
58
73
49
0
VERTEX
8
OBJECT020
10
0
20
0
30
0
70
128
71
49
72
58
73
59
0
VERTEX
8
OBJECT020
10
0
20
0
30
0
70
128
71
49
72
59
73
50
0
VERTEX
8
OBJECT020
10
0
20
0
30
0
70
128
71
50
72
59
73
60
0
VERTEX
8
OBJECT020
10
0
20
0
30
0
70
128
71
50
72
60
73
51
0
VERTEX
8
OBJECT020
10
0
20
0
30
0
70
128
71
51
72
60
73
61
0
VERTEX
8
OBJECT020
10
0
20
0
30
0
70
128
71
51
72
61
73
52
0
VERTEX
8
OBJECT020
10
0
20
0
30
0
70
128
71
52
72
61
73
62
0
VERTEX
8
OBJECT020
10
0
20
0
30
0
70
128
71
52
72
62
73
53
0
VERTEX
8
OBJECT020
10
0
20
0
30
0
70
128
71
53
72
62
73
63
0
VERTEX
8
OBJECT020
10
0
20
0
30
0
70
128
71
53
72
63
73
54
0
VERTEX
8
OBJECT020
10
0
20
0
30
0
70
128
71
55
72
64
73
65
0
VERTEX
8
OBJECT020
10
0
20
0
30
0
70
128
71
55
72
65
73
56
0
VERTEX
8
OBJECT020
10
0
20
0
30
0
70
128
71
56
72
65
73
66
0
VERTEX
8
OBJECT020
10
0
20
0
30
0
70
128
71
56
72
66
73
57
0
VERTEX
8
OBJECT020
10
0
20
0
30
0
70
128
71
57
72
66
73
67
0
VERTEX
8
OBJECT020
10
0
20
0
30
0
70
128
71
57
72
67
73
58
0
VERTEX
8
OBJECT020
10
0
20
0
30
0
70
128
71
58
72
67
73
68
0
VERTEX
8
OBJECT020
10
0
20
0
30
0
70
128
71
58
72
68
73
59
0
VERTEX
8
OBJECT020
10
0
20
0
30
0
70
128
71
59
72
68
73
69
0
VERTEX
8
OBJECT020
10
0
20
0
30
0
70
128
71
59
72
69
73
60
0
VERTEX
8
OBJECT020
10
0
20
0
30
0
70
128
71
60
72
69
73
70
0
VERTEX
8
OBJECT020
10
0
20
0
30
0
70
128
71
60
72
70
73
61
0
VERTEX
8
OBJECT020
10
0
20
0
30
0
70
128
71
61
72
70
73
71
0
VERTEX
8
OBJECT020
10
0
20
0
30
0
70
128
71
61
72
71
73
62
0
VERTEX
8
OBJECT020
10
0
20
0
30
0
70
128
71
62
72
71
73
72
0
VERTEX
8
OBJECT020
10
0
20
0
30
0
70
128
71
62
72
72
73
63
0
VERTEX
8
OBJECT020
10
0
20
0
30
0
70
128
71
64
72
73
73
74
0
VERTEX
8
OBJECT020
10
0
20
0
30
0
70
128
71
64
72
74
73
65
0
VERTEX
8
OBJECT020
10
0
20
0
30
0
70
128
71
65
72
74
73
75
0
VERTEX
8
OBJECT020
10
0
20
0
30
0
70
128
71
65
72
75
73
66
0
VERTEX
8
OBJECT020
10
0
20
0
30
0
70
128
71
66
72
75
73
76
0
VERTEX
8
OBJECT020
10
0
20
0
30
0
70
128
71
66
72
76
73
67
0
VERTEX
8
OBJECT020
10
0
20
0
30
0
70
128
71
67
72
76
73
77
0
VERTEX
8
OBJECT020
10
0
20
0
30
0
70
128
71
67
72
77
73
68
0
VERTEX
8
OBJECT020
10
0
20
0
30
0
70
128
71
68
72
77
73
78
0
VERTEX
8
OBJECT020
10
0
20
0
30
0
70
128
71
68
72
78
73
69
0
VERTEX
8
OBJECT020
10
0
20
0
30
0
70
128
71
69
72
78
73
79
0
VERTEX
8
OBJECT020
10
0
20
0
30
0
70
128
71
69
72
79
73
70
0
VERTEX
8
OBJECT020
10
0
20
0
30
0
70
128
71
70
72
79
73
80
0
VERTEX
8
OBJECT020
10
0
20
0
30
0
70
128
71
70
72
80
73
71
0
VERTEX
8
OBJECT020
10
0
20
0
30
0
70
128
71
71
72
80
73
81
0
VERTEX
8
OBJECT020
10
0
20
0
30
0
70
128
71
71
72
81
73
72
0
SEQEND
8
OBJECT020
0
POLYLINE
8
OBJECT020
66
1
70
64
71
81
72
128
62
50
0
VERTEX
8
OBJECT020
10
-211.092102
20
-173.644577
30
896.000000
70
192
0
VERTEX
8
OBJECT020
10
-203.182739
20
-177.939011
30
896.000000
70
192
0
VERTEX
8
OBJECT020
10
-195.273392
20
-182.233429
30
896.000000
70
192
0
VERTEX
8
OBJECT020
10
-187.364044
20
-186.527863
30
896.000000
70
192
0
VERTEX
8
OBJECT020
10
-179.454681
20
-190.822296
30
896.000000
70
192
0
VERTEX
8
OBJECT020
10
-171.545319
20
-195.116714
30
896.000000
70
192
0
VERTEX
8
OBJECT020
10
-163.635971
20
-199.411148
30
896.000000
70
192
0
VERTEX
8
OBJECT020
10
-155.726624
20
-203.705566
30
896.000000
70
192
0
VERTEX
8
OBJECT020
10
-147.817261
20
-208.000000
30
896.000000
70
192
0
VERTEX
8
OBJECT020
10
-211.092102
20
-173.644577
30
910.000000
70
192
0
VERTEX
8
OBJECT020
10
-203.182739
20
-177.939011
30
910.000000
70
192
0
VERTEX
8
OBJECT020
10
-195.273392
20
-182.233429
30
910.000000
70
192
0
VERTEX
8
OBJECT020
10
-187.364044
20
-186.527863
30
910.000000
70
192
0
VERTEX
8
OBJECT020
10
-179.454681
20
-190.822296
30
910.000000
70
192
0
VERTEX
8
OBJECT020
10
-171.545319
20
-195.116714
30
910.000000
70
192
0
VERTEX
8
OBJECT020
10
-163.635971
20
-199.411148
30
910.000000
70
192
0
VERTEX
8
OBJECT020
10
-155.726624
20
-203.705566
30
910.000000
70
192
0
VERTEX
8
OBJECT020
10
-147.817261
20
-208.000000
30
910.000000
70
192
0
VERTEX
8
OBJECT020
10
-210.165802
20
-173.644577
30
924.000000
70
192
0
VERTEX
8
OBJECT020
10
-202.175797
20
-177.939011
30
924.000000
70
192
0
VERTEX
8
OBJECT020
10
-194.282822
20
-182.233429
30
924.000000
70
192
0
VERTEX
8
OBJECT020
10
-186.485992
20
-186.527863
30
924.000000
70
192
0
VERTEX
8
OBJECT020
10
-178.784363
20
-190.822296
30
924.000000
70
192
0
VERTEX
8
OBJECT020
10
-171.177078
20
-195.116714
30
924.000000
70
192
0
VERTEX
8
OBJECT020
10
-163.551132
20
-199.411148
30
924.000000
70
192
0
VERTEX
8
OBJECT020
10
-155.726624
20
-203.705566
30
924.000000
70
192
0
VERTEX
8
OBJECT020
10
-147.817261
20
-208.000000
30
924.000000
70
192
0
VERTEX
8
OBJECT020
10
-208.436111
20
-173.644577
30
938.000000
70
192
0
VERTEX
8
OBJECT020
10
-200.558212
20
-177.939011
30
938.000000
70
192
0
VERTEX
8
OBJECT020
10
-192.873093
20
-182.233429
30
938.000000
70
192
0
VERTEX
8
OBJECT020
10
-185.376205
20
-186.527863
30
938.000000
70
192
0
VERTEX
8
OBJECT020
10
-177.970001
20
-190.822296
30
938.000000
70
192
0
VERTEX
8
OBJECT020
10
-170.365204
20
-195.116714
30
938.000000
70
192
0
VERTEX
8
OBJECT020
10
-162.853882
20
-199.411148
30
938.000000
70
192
0
VERTEX
8
OBJECT020
10
-155.406937
20
-203.705566
30
938.000000
70
192
0
VERTEX
8
OBJECT020
10
-147.817261
20
-208.000000
30
938.000000
70
192
0
VERTEX
8
OBJECT020
10
-204.437393
20
-173.644577
30
952.000000
70
192
0
VERTEX
8
OBJECT020
10
-196.855637
20
-177.939011
30
952.000000
70
192
0
VERTEX
8
OBJECT020
10
-189.736084
20
-182.233429
30
952.000000
70
192
0
VERTEX
8
OBJECT020
10
-183.050171
20
-186.527863
30
952.000000
70
192
0
VERTEX
8
OBJECT020
10
-176.622131
20
-190.822296
30
952.000000
70
192
0
VERTEX
8
OBJECT020
10
-169.596100
20
-195.116714
30
952.000000
70
192
0
VERTEX
8
OBJECT020
10
-162.274841
20
-199.411148
30
952.000000
70
192
0
VERTEX
8
OBJECT020
10
-154.857849
20
-203.705566
30
952.000000
70
192
0
VERTEX
8
OBJECT020
10
-147.481216
20
-208.000000
30
952.000000
70
192
0
VERTEX
8
OBJECT020
10
-201.062927
20
-173.644577
30
966.000000
70
192
0
VERTEX
8
OBJECT020
10
-193.480301
20
-177.475601
30
966.000000
70
192
0
VERTEX
8
OBJECT020
10
-186.376266
20
-181.567520
30
966.000000
70
192
0
VERTEX
8
OBJECT020
10
-179.846130
20
-186.521317
30
966.000000
70
192
0
VERTEX
8
OBJECT020
10
-173.619186
20
-190.822296
30
966.000000
70
192
0
VERTEX
8
OBJECT020
10
-167.771835
20
-195.116714
30
966.000000
70
192
0
VERTEX
8
OBJECT020
10
-161.765259
20
-199.411148
30
966.000000
70
192
0
VERTEX
8
OBJECT020
10
-154.510086
20
-203.705566
30
966.000000
70
192
0
VERTEX
8
OBJECT020
10
-147.185837
20
-208.000000
30
966.000000
70
192
0
VERTEX
8
OBJECT020
10
-198.335266
20
-167.789200
30
980.000000
70
192
0
VERTEX
8
OBJECT020
10
-190.527161
20
-170.119034
30
980.000000
70
192
0
VERTEX
8
OBJECT020
10
-183.267746
20
-174.571487
30
980.644470
70
192
0
VERTEX
8
OBJECT020
10
-176.862595
20
-180.959045
30
980.000000
70
192
0
VERTEX
8
OBJECT020
10
-170.917969
20
-187.390152
30
980.000000
70
192
0
VERTEX
8
OBJECT020
10
-165.662430
20
-194.722839
30
980.000000
70
192
0
VERTEX
8
OBJECT020
10
-160.286041
20
-199.411148
30
980.000000
70
192
0
VERTEX
8
OBJECT020
10
-154.387131
20
-203.705566
30
980.000000
70
192
0
VERTEX
8
OBJECT020
10
-147.067932
20
-208.000000
30
980.000000
70
192
0
VERTEX
8
OBJECT020
10
-196.108307
20
-154.726303
30
991.027588
70
192
0
VERTEX
8
OBJECT020
10
-188.154663
20
-156.100677
30
992.200012
70
192
0
VERTEX
8
OBJECT020
10
-181.365509
20
-162.124268
30
995.872009
70
192
0
VERTEX
8
OBJECT020
10
-174.294968
20
-166.351486
30
997.200012
70
192
0
VERTEX
8
OBJECT020
10
-168.187256
20
-175.233093
30
994.000000
70
192
0
VERTEX
8
OBJECT020
10
-163.113113
20
-186.491516
30
994.000000
70
192
0
VERTEX
8
OBJECT020
10
-158.385010
20
-195.194778
30
994.000000
70
192
0
VERTEX
8
OBJECT020
10
-153.859573
20
-202.475357
30
994.000000
70
192
0
VERTEX
8
OBJECT020
10
-147.178818
20
-208.000000
30
994.000000
70
192
0
VERTEX
8
OBJECT020
10
-194.859680
20
-153.234161
30
1007.391968
70
192
0
VERTEX
8
OBJECT020
10
-187.200821
20
-154.929825
30
1005.591980
70
192
0
VERTEX
8
OBJECT020
10
-181.573944
20
-161.975021
30
1008.355042
70
192
0
VERTEX
8
OBJECT020
10
-174.420517
20
-165.053604
30
1008.000000
70
192
0
VERTEX
8
OBJECT020
10
-168.081390
20
-173.043839
30
1008.000000
70
192
0
VERTEX
8
OBJECT020
10
-162.820068
20
-184.012115
30
1008.000000
70
192
0
VERTEX
8
OBJECT020
10
-157.928619
20
-192.497131
30
1008.000000
70
192
0
VERTEX
8
OBJECT020
10
-153.637115
20
-201.227936
30
1008.000000
70
192
0
VERTEX
8
OBJECT020
10
-147.466751
20
-207.994370
30
1008.000000
70
192
0
VERTEX
8
OBJECT020
10
0
20
0
30
0
70
128
71
1
72
10
73
11
0
VERTEX
8
OBJECT020
10
0
20
0
30
0
70
128
71
1
72
11
73
2
0
VERTEX
8
OBJECT020
10
0
20
0
30
0
70
128
71
2
72
11
73
12
0
VERTEX
8
OBJECT020
10
0
20
0
30
0
70
128
71
2
72
12
73
3
0
VERTEX
8
OBJECT020
10
0
20
0
30
0
70
128
71
3
72
12
73
13
0
VERTEX
8
OBJECT020
10
0
20
0
30
0
70
128
71
3
72
13
73
4
0
VERTEX
8
OBJECT020
10
0
20
0
30
0
70
128
71
4
72
13
73
14
0
VERTEX
8
OBJECT020
10
0
20
0
30
0
70
128
71
4
72
14
73
5
0
VERTEX
8
OBJECT020
10
0
20
0
30
0
70
128
71
5
72
14
73
15
0
VERTEX
8
OBJECT020
10
0
20
0
30
0
70
128
71
5
72
15
73
6
0
VERTEX
8
OBJECT020
10
0
20
0
30
0
70
128
71
6
72
15
73
16
0
VERTEX
8
OBJECT020
10
0
20
0
30
0
70
128
71
6
72
16
73
7
0
VERTEX
8
OBJECT020
10
0
20
0
30
0
70
128
71
7
72
16
73
17
0
VERTEX
8
OBJECT020
10
0
20
0
30
0
70
128
71
7
72
17
73
8
0
VERTEX
8
OBJECT020
10
0
20
0
30
0
70
128
71
8
72
17
73
18
0
VERTEX
8
OBJECT020
10
0
20
0
30
0
70
128
71
8
72
18
73
9
0
VERTEX
8
OBJECT020
10
0
20
0
30
0
70
128
71
10
72
19
73
20
0
VERTEX
8
OBJECT020
10
0
20
0
30
0
70
128
71
10
72
20
73
11
0
VERTEX
8
OBJECT020
10
0
20
0
30
0
70
128
71
11
72
20
73
21
0
VERTEX
8
OBJECT020
10
0
20
0
30
0
70
128
71
11
72
21
73
12
0
VERTEX
8
OBJECT020
10
0
20
0
30
0
70
128
71
12
72
21
73
22
0
VERTEX
8
OBJECT020
10
0
20
0
30
0
70
128
71
12
72
22
73
13
0
VERTEX
8
OBJECT020
10
0
20
0
30
0
70
128
71
13
72
22
73
23
0
VERTEX
8
OBJECT020
10
0
20
0
30
0
70
128
71
13
72
23
73
14
0
VERTEX
8
OBJECT020
10
0
20
0
30
0
70
128
71
14
72
23
73
24
0
VERTEX
8
OBJECT020
10
0
20
0
30
0
70
128
71
14
72
24
73
15
0
VERTEX
8
OBJECT020
10
0
20
0
30
0
70
128
71
15
72
24
73
25
0
VERTEX
8
OBJECT020
10
0
20
0
30
0
70
128
71
15
72
25
73
16
0
VERTEX
8
OBJECT020
10
0
20
0
30
0
70
128
71
16
72
25
73
26
0
VERTEX
8
OBJECT020
10
0
20
0
30
0
70
128
71
16
72
26
73
17
0
VERTEX
8
OBJECT020
10
0
20
0
30
0
70
128
71
17
72
26
73
27
0
VERTEX
8
OBJECT020
10
0
20
0
30
0
70
128
71
17
72
27
73
18
0
VERTEX
8
OBJECT020
10
0
20
0
30
0
70
128
71
19
72
28
73
29
0
VERTEX
8
OBJECT020
10
0
20
0
30
0
70
128
71
19
72
29
73
20
0
VERTEX
8
OBJECT020
10
0
20
0
30
0
70
128
71
20
72
29
73
30
0
VERTEX
8
OBJECT020
10
0
20
0
30
0
70
128
71
20
72
30
73
21
0
VERTEX
8
OBJECT020
10
0
20
0
30
0
70
128
71
21
72
30
73
31
0
VERTEX
8
OBJECT020
10
0
20
0
30
0
70
128
71
21
72
31
73
22
0
VERTEX
8
OBJECT020
10
0
20
0
30
0
70
128
71
22
72
31
73
32
0
VERTEX
8
OBJECT020
10
0
20
0
30
0
70
128
71
22
72
32
73
23
0
VERTEX
8
OBJECT020
10
0
20
0
30
0
70
128
71
23
72
32
73
33
0
VERTEX
8
OBJECT020
10
0
20
0
30
0
70
128
71
23
72
33
73
24
0
VERTEX
8
OBJECT020
10
0
20
0
30
0
70
128
71
24
72
33
73
34
0
VERTEX
8
OBJECT020
10
0
20
0
30
0
70
128
71
24
72
34
73
25
0
VERTEX
8
OBJECT020
10
0
20
0
30
0
70
128
71
25
72
34
73
35
0
VERTEX
8
OBJECT020
10
0
20
0
30
0
70
128
71
25
72
35
73
26
0
VERTEX
8
OBJECT020
10
0
20
0
30
0
70
128
71
26
72
35
73
36
0
VERTEX
8
OBJECT020
10
0
20
0
30
0
70
128
71
26
72
36
73
27
0
VERTEX
8
OBJECT020
10
0
20
0
30
0
70
128
71
28
72
37
73
38
0
VERTEX
8
OBJECT020
10
0
20
0
30
0
70
128
71
28
72
38
73
29
0
VERTEX
8
OBJECT020
10
0
20
0
30
0
70
128
71
29
72
38
73
39
0
VERTEX
8
OBJECT020
10
0
20
0
30
0
70
128
71
29
72
39
73
30
0
VERTEX
8
OBJECT020
10
0
20
0
30
0
70
128
71
30
72
39
73
40
0
VERTEX
8
OBJECT020
10
0
20
0
30
0
70
128
71
30
72
40
73
31
0
VERTEX
8
OBJECT020
10
0
20
0
30
0
70
128
71
31
72
40
73
41
0
VERTEX
8
OBJECT020
10
0
20
0
30
0
70
128
71
31
72
41
73
32
0
VERTEX
8
OBJECT020
10
0
20
0
30
0
70
128
71
32
72
41
73
42
0
VERTEX
8
OBJECT020
10
0
20
0
30
0
70
128
71
32
72
42
73
33
0
VERTEX
8
OBJECT020
10
0
20
0
30
0
70
128
71
33
72
42
73
43
0
VERTEX
8
OBJECT020
10
0
20
0
30
0
70
128
71
33
72
43
73
34
0
VERTEX
8
OBJECT020
10
0
20
0
30
0
70
128
71
34
72
43
73
44
0
VERTEX
8
OBJECT020
10
0
20
0
30
0
70
128
71
34
72
44
73
35
0
VERTEX
8
OBJECT020
10
0
20
0
30
0
70
128
71
35
72
44
73
45
0
VERTEX
8
OBJECT020
10
0
20
0
30
0
70
128
71
35
72
45
73
36
0
VERTEX
8
OBJECT020
10
0
20
0
30
0
70
128
71
37
72
46
73
47
0
VERTEX
8
OBJECT020
10
0
20
0
30
0
70
128
71
37
72
47
73
38
0
VERTEX
8
OBJECT020
10
0
20
0
30
0
70
128
71
38
72
47
73
48
0
VERTEX
8
OBJECT020
10
0
20
0
30
0
70
128
71
38
72
48
73
39
0
VERTEX
8
OBJECT020
10
0
20
0
30
0
70
128
71
39
72
48
73
49
0
VERTEX
8
OBJECT020
10
0
20
0
30
0
70
128
71
39
72
49
73
40
0
VERTEX
8
OBJECT020
10
0
20
0
30
0
70
128
71
40
72
49
73
50
0
VERTEX
8
OBJECT020
10
0
20
0
30
0
70
128
71
40
72
50
73
41
0
VERTEX
8
OBJECT020
10
0
20
0
30
0
70
128
71
41
72
50
73
51
0
VERTEX
8
OBJECT020
10
0
20
0
30
0
70
128
71
41
72
51
73
42
0
VERTEX
8
OBJECT020
10
0
20
0
30
0
70
128
71
42
72
51
73
52
0
VERTEX
8
OBJECT020
10
0
20
0
30
0
70
128
71
42
72
52
73
43
0
VERTEX
8
OBJECT020
10
0
20
0
30
0
70
128
71
43
72
52
73
53
0
VERTEX
8
OBJECT020
10
0
20
0
30
0
70
128
71
43
72
53
73
44
0
VERTEX
8
OBJECT020
10
0
20
0
30
0
70
128
71
44
72
53
73
54
0
VERTEX
8
OBJECT020
10
0
20
0
30
0
70
128
71
44
72
54
73
45
0
VERTEX
8
OBJECT020
10
0
20
0
30
0
70
128
71
46
72
55
73
56
0
VERTEX
8
OBJECT020
10
0
20
0
30
0
70
128
71
46
72
56
73
47
0
VERTEX
8
OBJECT020
10
0
20
0
30
0
70
128
71
47
72
56
73
57
0
VERTEX
8
OBJECT020
10
0
20
0
30
0
70
128
71
47
72
57
73
48
0
VERTEX
8
OBJECT020
10
0
20
0
30
0
70
128
71
48
72
57
73
58
0
VERTEX
8
OBJECT020
10
0
20
0
30
0
70
128
71
48
72
58
73
49
0
VERTEX
8
OBJECT020
10
0
20
0
30
0
70
128
71
49
72
58
73
59
0
VERTEX
8
OBJECT020
10
0
20
0
30
0
70
128
71
49
72
59
73
50
0
VERTEX
8
OBJECT020
10
0
20
0
30
0
70
128
71
50
72
59
73
60
0
VERTEX
8
OBJECT020
10
0
20
0
30
0
70
128
71
50
72
60
73
51
0
VERTEX
8
OBJECT020
10
0
20
0
30
0
70
128
71
51
72
60
73
61
0
VERTEX
8
OBJECT020
10
0
20
0
30
0
70
128
71
51
72
61
73
52
0
VERTEX
8
OBJECT020
10
0
20
0
30
0
70
128
71
52
72
61
73
62
0
VERTEX
8
OBJECT020
10
0
20
0
30
0
70
128
71
52
72
62
73
53
0
VERTEX
8
OBJECT020
10
0
20
0
30
0
70
128
71
53
72
62
73
63
0
VERTEX
8
OBJECT020
10
0
20
0
30
0
70
128
71
53
72
63
73
54
0
VERTEX
8
OBJECT020
10
0
20
0
30
0
70
128
71
55
72
64
73
65
0
VERTEX
8
OBJECT020
10
0
20
0
30
0
70
128
71
55
72
65
73
56
0
VERTEX
8
OBJECT020
10
0
20
0
30
0
70
128
71
56
72
65
73
66
0
VERTEX
8
OBJECT020
10
0
20
0
30
0
70
128
71
56
72
66
73
57
0
VERTEX
8
OBJECT020
10
0
20
0
30
0
70
128
71
57
72
66
73
67
0
VERTEX
8
OBJECT020
10
0
20
0
30
0
70
128
71
57
72
67
73
58
0
VERTEX
8
OBJECT020
10
0
20
0
30
0
70
128
71
58
72
67
73
68
0
VERTEX
8
OBJECT020
10
0
20
0
30
0
70
128
71
58
72
68
73
59
0
VERTEX
8
OBJECT020
10
0
20
0
30
0
70
128
71
59
72
68
73
69
0
VERTEX
8
OBJECT020
10
0
20
0
30
0
70
128
71
59
72
69
73
60
0
VERTEX
8
OBJECT020
10
0
20
0
30
0
70
128
71
60
72
69
73
70
0
VERTEX
8
OBJECT020
10
0
20
0
30
0
70
128
71
60
72
70
73
61
0
VERTEX
8
OBJECT020
10
0
20
0
30
0
70
128
71
61
72
70
73
71
0
VERTEX
8
OBJECT020
10
0
20
0
30
0
70
128
71
61
72
71
73
62
0
VERTEX
8
OBJECT020
10
0
20
0
30
0
70
128
71
62
72
71
73
72
0
VERTEX
8
OBJECT020
10
0
20
0
30
0
70
128
71
62
72
72
73
63
0
VERTEX
8
OBJECT020
10
0
20
0
30
0
70
128
71
64
72
73
73
74
0
VERTEX
8
OBJECT020
10
0
20
0
30
0
70
128
71
64
72
74
73
65
0
VERTEX
8
OBJECT020
10
0
20
0
30
0
70
128
71
65
72
74
73
75
0
VERTEX
8
OBJECT020
10
0
20
0
30
0
70
128
71
65
72
75
73
66
0
VERTEX
8
OBJECT020
10
0
20
0
30
0
70
128
71
66
72
75
73
76
0
VERTEX
8
OBJECT020
10
0
20
0
30
0
70
128
71
66
72
76
73
67
0
VERTEX
8
OBJECT020
10
0
20
0
30
0
70
128
71
67
72
76
73
77
0
VERTEX
8
OBJECT020
10
0
20
0
30
0
70
128
71
67
72
77
73
68
0
VERTEX
8
OBJECT020
10
0
20
0
30
0
70
128
71
68
72
77
73
78
0
VERTEX
8
OBJECT020
10
0
20
0
30
0
70
128
71
68
72
78
73
69
0
VERTEX
8
OBJECT020
10
0
20
0
30
0
70
128
71
69
72
78
73
79
0
VERTEX
8
OBJECT020
10
0
20
0
30
0
70
128
71
69
72
79
73
70
0
VERTEX
8
OBJECT020
10
0
20
0
30
0
70
128
71
70
72
79
73
80
0
VERTEX
8
OBJECT020
10
0
20
0
30
0
70
128
71
70
72
80
73
71
0
VERTEX
8
OBJECT020
10
0
20
0
30
0
70
128
71
71
72
80
73
81
0
VERTEX
8
OBJECT020
10
0
20
0
30
0
70
128
71
71
72
81
73
72
0
SEQEND
8
OBJECT020
0
POLYLINE
8
OBJECT020
66
1
70
64
71
8
72
12
62
50
0
VERTEX
8
OBJECT020
10
-432.000000
20
-344.000000
30
902.082397
70
192
0
VERTEX
8
OBJECT020
10
-416.000000
20
-344.000000
30
902.082397
70
192
0
VERTEX
8
OBJECT020
10
-416.000000
20
-360.000000
30
902.082397
70
192
0
VERTEX
8
OBJECT020
10
-432.000000
20
-360.000000
30
902.082397
70
192
0
VERTEX
8
OBJECT020
10
-432.000000
20
-360.000000
30
896.082397
70
192
0
VERTEX
8
OBJECT020
10
-416.000000
20
-360.000000
30
896.082397
70
192
0
VERTEX
8
OBJECT020
10
-416.000000
20
-344.000000
30
896.082397
70
192
0
VERTEX
8
OBJECT020
10
-432.000000
20
-344.000000
30
896.082397
70
192
0
VERTEX
8
OBJECT020
10
0
20
0
30
0
70
128
71
2
72
3
73
-4
0
VERTEX
8
OBJECT020
10
0
20
0
30
0
70
128
71
-2
72
4
73
1
0
VERTEX
8
OBJECT020
10
0
20
0
30
0
70
128
71
6
72
7
73
-8
0
VERTEX
8
OBJECT020
10
0
20
0
30
0
70
128
71
-6
72
8
73
5
0
VERTEX
8
OBJECT020
10
0
20
0
30
0
70
128
71
4
72
5
73
-8
0
VERTEX
8
OBJECT020
10
0
20
0
30
0
70
128
71
-4
72
8
73
1
0
VERTEX
8
OBJECT020
10
0
20
0
30
0
70
128
71
6
72
3
73
-2
0
VERTEX
8
OBJECT020
10
0
20
0
30
0
70
128
71
-6
72
2
73
7
0
VERTEX
8
OBJECT020
10
0
20
0
30
0
70
128
71
1
72
8
73
-7
0
VERTEX
8
OBJECT020
10
0
20
0
30
0
70
128
71
-1
72
7
73
2
0
VERTEX
8
OBJECT020
10
0
20
0
30
0
70
128
71
5
72
4
73
-3
0
VERTEX
8
OBJECT020
10
0
20
0
30
0
70
128
71
-5
72
3
73
6
0
SEQEND
8
OBJECT020
0
ENDSEC
0
EOF
